<svg  viewBox="0 0 59 59" fill="none" xmlns="http://www.w3.org/2000/svg">
<g clip-path="url(#clip0_341_8112)">
<circle cx="29.5" cy="29.5" r="29.5" fill="url(#paint0_linear_341_8112)"/>
<path d="M42.0549 25.7363C41.5023 24.176 40.6672 22.7598 39.5731 21.5258C38.4399 20.2494 37.079 19.2264 35.5245 18.4849C33.9712 17.747 32.3209 17.3308 30.6146 17.2558C28.9671 17.1821 27.341 17.4244 25.7806 17.9768C24.2203 18.5293 22.8041 19.3642 21.5701 20.4581C20.2937 21.5911 19.2707 22.9519 18.5293 24.5062C17.7891 26.0582 17.3742 27.7119 17.297 29.417C17.2234 31.0643 17.4658 32.6904 18.0184 34.2507C18.571 35.811 19.4061 37.2271 20.5002 38.4611C21.6334 39.7375 22.9943 40.7605 24.5489 41.502C26.101 42.2423 27.7549 42.6573 29.46 42.7347C31.1075 42.8084 32.7336 42.5662 34.294 42.0137C35.8543 41.4612 37.2705 40.6263 38.5045 39.5324C39.7809 38.3994 40.8039 37.0387 41.5453 35.4843C42.2855 33.9323 42.7004 32.2786 42.7777 30.5736C42.8499 28.9226 42.6064 27.299 42.0549 25.7363ZM27.9169 18.0462C28.0589 18.016 28.2008 17.9798 28.3429 17.9556C29.0882 17.8304 29.8582 17.8089 30.6124 17.8453C32.2193 17.9233 33.8154 18.3226 35.2708 19.0168C36.2403 19.4792 37.1717 20.0837 37.9851 20.7862C37.5437 20.7596 36.9555 20.8292 35.8874 21.115C35.2886 20.7463 34.6516 20.4395 33.9821 20.1943C33.1075 19.8751 32.1774 19.66 31.217 19.558C30.3503 19.465 29.621 19.4822 29.1161 19.5203C28.613 19.0133 27.9519 18.3834 27.6251 18.0732C27.6763 18.1214 27.8608 18.058 27.9169 18.0462ZM37.0277 25.923L32.4977 30.3557L27.3436 29.0102L25.3637 23.1192C26.4989 21.4173 28.5238 20.395 28.5238 20.395C28.5333 20.3936 29.6318 20.1936 31.1601 20.3617C32.0521 20.4578 32.9124 20.6574 33.7231 20.9551C34.3842 21.1992 35.0106 21.5098 35.5986 21.8823L37.0277 25.923ZM19.6628 24.5751C19.1695 25.2982 18.7566 26.0954 18.4309 26.94C18.4266 26.7065 18.4277 26.5112 18.4332 26.3566C18.6017 25.8167 18.8122 25.2821 19.0635 24.7551C19.8361 23.1355 20.9211 21.7628 22.2128 20.6786C21.7968 21.3704 21.472 22.1383 21.2507 22.7331C20.6559 23.2832 20.1247 23.8992 19.6628 24.5751ZM18.6219 29.2151C18.7055 28.7535 18.8586 28.0966 19.1335 27.3523C19.4449 26.5127 19.8483 25.7229 20.3347 25.0142C20.7068 24.4706 21.1264 23.9705 21.5912 23.5186C22.7071 23.226 23.9492 23.3347 24.6183 23.4313L26.5615 29.2127L24.0928 33.3557L19.7541 32.8204C19.136 31.665 18.8003 30.3654 18.6219 29.2151ZM27.0012 40.915C25.9065 41.0635 23.7361 40.1885 22.8652 39.8117C22.0065 39.1855 21.2344 38.4463 20.5696 37.6188C19.9882 36.8964 19.4871 36.1054 19.0856 35.2671C19.1081 35.2512 19.5445 34.0438 19.7499 33.6255L24.133 34.1672L27.5963 38.1366L27.0118 40.9112C27.0047 40.9138 27.0012 40.915 27.0012 40.915ZM36.0769 40.5466C34.9792 41.1744 33.7845 41.6757 32.5329 41.8918C31.3601 42.0921 30.0837 41.7444 28.9574 41.4178C28.8719 41.3919 27.795 41.08 27.8039 41.0427L28.3895 38.2657L32.9878 36.5331L37.2354 38.0992C36.9892 38.7771 36.6206 39.7614 36.3934 40.3623C36.2867 40.4241 36.1824 40.4872 36.0769 40.5466ZM37.6918 37.3228C37.6657 37.3401 37.6385 37.3597 37.6102 37.3818L33.3807 35.8214L33.0194 30.9666L37.56 26.5241L40.261 28.029C40.6169 28.8071 40.8787 29.6085 41.0399 30.4153C41.2396 31.4275 41.2815 32.4534 41.1626 33.462C39.5709 36.0025 38.2189 37.0015 37.6918 37.3228ZM42.0297 31.9675C42.0106 31.3917 41.9423 30.8131 41.8273 30.239C41.6463 29.3307 41.3455 28.4306 40.9328 27.5601C41.1012 26.8897 41.2216 25.7661 40.7946 24.3221C40.8057 24.3422 40.8157 24.3648 40.8269 24.385C40.8629 24.4526 40.8953 24.5215 40.9313 24.5891C41.3223 25.3809 41.6265 26.2115 41.8389 27.0665C42.2316 28.6573 42.3069 30.3224 42.0436 31.9445C42.0366 31.953 42.0331 31.9603 42.0297 31.9675Z" fill="#17181A"/>
</g>
<defs>
<linearGradient id="paint0_linear_341_8112" x1="29.5" y1="0" x2="29.5" y2="59" gradientUnits="userSpaceOnUse">
<stop stop-color="#C258FF"/>
<stop offset="1" stop-color="#654CF4"/>
</linearGradient>
<clipPath id="clip0_341_8112">
<rect width="59" height="59" fill="white"/>
</clipPath>
</defs>
</svg>
