<svg viewBox="0 0 24 24" xmlns="http://www.w3.org/2000/svg">
<path d="M16.2416 7.75696C15.6908 7.20618 15.0492 6.77387 14.3345 6.47138C13.5945 6.15881 12.8092 6 11.9987 6C11.1895 6.00126 10.4042 6.15881 9.66429 6.47264C8.94958 6.77513 8.30798 7.20744 7.75714 7.75822C7.2063 8.309 6.77395 8.95053 6.47143 9.66516C6.15882 10.405 6 11.1902 6 12.0006C6 12.8098 6.15882 13.5963 6.47143 14.3361C6.77395 15.0507 7.2063 15.6923 7.75714 16.243C8.30798 16.7938 8.94958 17.2261 9.66429 17.5286C10.4042 17.8412 11.1895 18 12 18C12.8092 18 13.5958 17.8412 14.3357 17.5286C15.0504 17.2261 15.692 16.7938 16.2429 16.243C16.7937 15.6923 17.2261 15.0507 17.5286 14.3361C17.8412 13.5963 18 12.8111 18 12.0006C18 11.1915 17.8412 10.405 17.5286 9.66516C17.2248 8.94927 16.7924 8.309 16.2416 7.75696ZM8.67857 7.3549C8.73277 7.31331 8.78571 7.26919 8.84118 7.23012C9.13235 7.02594 9.45504 6.86083 9.78277 6.72345C10.4811 6.43105 11.2399 6.27728 11.9987 6.27728C12.5042 6.27728 13.0223 6.34534 13.5101 6.47894C13.3172 6.55708 13.0815 6.70581 12.6857 7.04359C12.3567 7.0083 12.024 7.00704 11.6899 7.03855C11.2538 7.08014 10.8151 7.17719 10.3866 7.32843C9.99958 7.46455 9.69328 7.61958 9.48655 7.73805C9.17017 7.62462 8.76176 7.49102 8.56008 7.42548C8.5916 7.43556 8.65714 7.37128 8.67857 7.3549ZM14.1441 8.85474L13.1181 11.6553L10.6563 12.1279L8.62185 10.0269C8.75924 9.07405 9.41219 8.2296 9.41219 8.2296C9.41597 8.22708 9.84202 7.91955 10.5252 7.68134C10.9235 7.54143 11.3294 7.45195 11.734 7.41414C12.0643 7.38389 12.3933 7.38893 12.7185 7.428L14.1441 8.85474ZM6.49538 11.8002C6.43235 12.2073 6.41849 12.6296 6.45126 13.0543C6.4021 12.956 6.36303 12.8728 6.33403 12.806C6.29622 12.5426 6.27731 12.2729 6.27731 11.9981C6.27731 11.1537 6.46008 10.3508 6.78908 9.62862C6.75252 10.0067 6.77017 10.3987 6.79664 10.6962C6.65546 11.0503 6.55462 11.4196 6.49538 11.8002ZM6.99328 13.9819C6.93529 13.7689 6.86723 13.4589 6.83319 13.0871C6.79538 12.6674 6.80672 12.2502 6.86975 11.8506C6.91765 11.5444 6.99454 11.2469 7.10042 10.9608C7.51513 10.6104 8.06471 10.405 8.36849 10.3105L10.3651 12.3724L10.1559 14.6323L8.20462 15.2839C7.70798 14.9184 7.3021 14.4344 6.99328 13.9819ZM12.9227 17.2539C12.4878 17.5387 11.3887 17.6068 10.9424 17.6231C10.4508 17.5311 9.97311 17.3736 9.5231 17.1568C9.12982 16.9677 8.75671 16.7333 8.41637 16.4586C8.42268 16.4472 8.36343 15.846 8.36595 15.6267L10.3374 14.9688L12.6126 15.9532L12.9264 17.2501C12.9239 17.2526 12.9227 17.2539 12.9227 17.2539ZM16.7029 15.2587C16.3639 15.7477 15.958 16.2027 15.4702 16.5481C15.0126 16.8707 14.4 16.9816 13.8555 17.0711C13.8139 17.0774 13.2933 17.1631 13.2895 17.1455L12.9756 15.8473L14.5777 14.1798L16.6992 13.9845C16.7319 14.3222 16.7748 14.815 16.8 15.1163C16.7672 15.1642 16.7357 15.2121 16.7029 15.2587ZM16.7357 13.5622C16.7282 13.5748 16.7206 13.5887 16.713 13.6038L14.6004 13.7979L13.4634 11.8091L14.492 9.00221L15.9441 9.09421C16.2529 9.35259 16.5265 9.63995 16.7584 9.95001C17.0483 10.3395 17.274 10.7667 17.4277 11.2192C17.2664 12.6207 16.8945 13.319 16.7357 13.5622ZM17.4933 10.4088C17.3685 10.168 17.2223 9.93614 17.0571 9.71558C16.7962 9.36645 16.4861 9.04506 16.1345 8.75895C16.0702 8.44008 15.8937 7.93845 15.4197 7.41162C15.4286 7.41792 15.4374 7.42548 15.4462 7.43178C15.4752 7.45321 15.503 7.4759 15.5319 7.49732C15.8584 7.75444 16.1559 8.04558 16.4193 8.36572C16.9084 8.96187 17.2777 9.65382 17.4946 10.3962C17.4933 10.4012 17.4933 10.405 17.4933 10.4088Z"/>
</svg>
