<svg width="18" height="19" viewBox="0 0 18 19" fill="none" xmlns="http://www.w3.org/2000/svg">
<path d="M12.1812 6.31772C11.7681 5.90463 11.2869 5.5804 10.7508 5.35353C10.1959 5.11911 9.60693 5 8.99905 5C8.39212 5.00095 7.80315 5.11911 7.24821 5.35448C6.71218 5.58135 6.23099 5.90558 5.81786 6.31866C5.40473 6.73175 5.08046 7.2129 4.85357 7.74887C4.61912 8.30375 4.5 8.89266 4.5 9.50047C4.5 10.1074 4.61912 10.6972 4.85357 11.2521C5.08046 11.788 5.40473 12.2692 5.81786 12.6823C6.23099 13.0954 6.71218 13.4196 7.24821 13.6465C7.80315 13.8809 8.39212 14 9 14C9.60693 14 10.1969 13.8809 10.7518 13.6465C11.2878 13.4196 11.769 13.0954 12.1822 12.6823C12.5953 12.2692 12.9195 11.788 13.1464 11.2521C13.3809 10.6972 13.5 10.1083 13.5 9.50047C13.5 8.8936 13.3809 8.30375 13.1464 7.74887C12.9186 7.21195 12.5943 6.73175 12.1812 6.31772ZM6.50893 6.01617C6.54958 5.98498 6.58929 5.9519 6.63088 5.92259C6.84926 5.76946 7.09128 5.64563 7.33708 5.54259C7.86082 5.32329 8.42994 5.20796 8.99905 5.20796C9.37815 5.20796 9.7667 5.25901 10.1326 5.35921C9.98791 5.41781 9.81113 5.52936 9.51429 5.78269C9.26753 5.75622 9.01796 5.75528 8.76744 5.77891C8.44033 5.8101 8.11134 5.88289 7.78992 5.99632C7.49968 6.09841 7.26996 6.21468 7.11492 6.30354C6.87763 6.21846 6.57132 6.11826 6.42006 6.06911C6.4437 6.07667 6.49286 6.02846 6.50893 6.01617ZM10.6081 7.14106L9.83855 9.24147L7.99223 9.59595L6.46639 8.02017C6.56943 7.30554 7.05914 6.6722 7.05914 6.6722C7.06197 6.67031 7.38151 6.43966 7.89391 6.261C8.19266 6.15608 8.49706 6.08896 8.80053 6.0606C9.04821 6.03792 9.29496 6.0417 9.53887 6.071L10.6081 7.14106ZM4.87153 9.35017C4.82426 9.6555 4.81387 9.97217 4.83845 10.2907C4.80158 10.217 4.77227 10.1546 4.75053 10.1045C4.72216 9.90695 4.70798 9.70465 4.70798 9.49859C4.70798 8.86525 4.84506 8.26311 5.09181 7.72147C5.06439 8.00505 5.07763 8.29903 5.09748 8.52212C4.9916 8.78773 4.91597 9.0647 4.87153 9.35017ZM5.24496 10.9865C5.20147 10.8267 5.15042 10.5942 5.12489 10.3153C5.09653 10.0005 5.10504 9.68765 5.15231 9.38798C5.18824 9.15828 5.2459 8.93521 5.32532 8.72062C5.63634 8.45783 6.04853 8.30375 6.27637 8.23285L7.77384 9.77933L7.61691 11.4742L6.15347 11.9629C5.78099 11.6888 5.47658 11.3258 5.24496 10.9865ZM9.69202 13.4404C9.36586 13.654 8.54149 13.7051 8.20683 13.7174C7.83813 13.6484 7.47983 13.5302 7.14232 13.3676C6.84736 13.2258 6.56753 13.05 6.31228 12.8439C6.31701 12.8354 6.27257 12.3845 6.27447 12.22L7.75304 11.7266L9.45944 12.4649L9.69483 13.4376C9.69296 13.4395 9.69202 13.4404 9.69202 13.4404ZM12.5272 11.944C12.2729 12.3108 11.9685 12.652 11.6026 12.911C11.2595 13.153 10.8 13.2362 10.3916 13.3033C10.3604 13.3081 9.96996 13.3723 9.96712 13.3591L9.73173 12.3855L10.9333 11.1349L12.5244 10.9883C12.549 11.2417 12.5811 11.6113 12.6 11.8372C12.5754 11.8731 12.5518 11.909 12.5272 11.944ZM12.5518 10.6717C12.5461 10.6811 12.5404 10.6915 12.5348 10.7029L10.9503 10.8484L10.0976 9.35679L10.869 7.25165L11.9581 7.32066C12.1897 7.51444 12.3949 7.72997 12.5688 7.9625C12.7862 8.2546 12.9555 8.57504 13.0708 8.9144C12.9498 9.96556 12.6709 10.4892 12.5518 10.6717ZM13.12 8.30659C13.0264 8.12604 12.9167 7.95211 12.7929 7.78668C12.5972 7.52484 12.3646 7.28379 12.1008 7.06922C12.0526 6.83006 11.9203 6.45384 11.5648 6.05871C11.5714 6.06344 11.578 6.06911 11.5847 6.07384C11.6064 6.08991 11.6272 6.10692 11.649 6.12299C11.8938 6.31583 12.1169 6.53419 12.3145 6.77429C12.6813 7.22141 12.9583 7.74036 13.1209 8.29713C13.12 8.30091 13.12 8.30375 13.12 8.30659Z" fill="#686868"/>
</svg>
