<svg width="176" height="98" viewBox="0 0 176 98" fill="none" xmlns="http://www.w3.org/2000/svg">
<g clip-path="url(#clip0_69_8952)">
<circle cx="48.675" cy="48.675" r="48.675" fill="url(#paint0_linear_69_8952)"/>
<path d="M33.4767 30.2523L34.2836 29.4689L35.213 29.9123C35.3734 29.9641 35.6013 30.0486 35.8828 30.1829C36.5797 30.5153 37.2842 30.993 37.9756 31.6038L38.5514 32.1123L38.4386 35.9481C38.6542 36.2398 39.2183 36.8459 40.5137 37.4638L40.6655 37.5362C41.0785 37.5965 42.8084 37.6915 47.8693 36.3799L48.6107 36.1879L53.482 39.5759L53.6566 39.837C53.7407 39.9622 62.1466 52.3986 70.6742 56.7685L70.9066 56.9134C74.2092 59.3445 73.8719 62.5265 72.8147 64.1555C71.8446 66.0908 70.0177 67.0701 67.6571 66.9158C67.1783 66.884 66.7208 66.8063 66.2934 66.71L65.8089 67.7257C65.4367 68.5061 64.4741 68.8244 63.6585 68.4354C62.843 68.0464 62.4845 67.098 62.8567 66.3176L63.226 65.5434L60.7168 64.3466L60.3476 65.1208C59.9753 65.9012 59.0117 66.219 58.1971 65.8304C57.3825 65.4419 57.0231 64.4931 57.3953 63.7126L57.7646 62.9385L55.2547 61.7408L54.8852 62.5154C54.513 63.2958 53.5499 63.6138 52.7348 63.225C51.9197 62.8363 51.5608 61.8877 51.933 61.1072L52.3025 60.3326L49.7928 59.1356L49.4234 59.9102C49.0511 60.6906 48.0885 61.0088 47.273 60.6199C46.4579 60.2311 46.0989 59.2825 46.4712 58.5021L46.8406 57.7275L37.4705 53.2581L37.101 54.0327C36.7288 54.8132 35.7657 55.1312 34.9506 54.7424C34.1355 54.3536 33.7761 53.4048 34.1484 52.6244L34.518 51.8493L30.6079 49.9843L30.2382 50.7594C29.866 51.5398 28.9029 51.8578 28.0878 51.469C27.2732 51.0805 26.9142 50.1319 27.2865 49.3515L27.6952 48.4945C25.8199 47.1631 25.6037 45.2664 25.9862 44.0896C27.3349 36.3904 33.2248 30.5005 33.4767 30.2523ZM51.5701 56.5099L58.51 50.8924C57.8628 50.201 57.2451 49.515 56.6619 48.8443L48.8481 55.2115L51.5701 56.5099ZM54.5776 46.3541C53.9391 45.5604 53.3708 44.826 52.8844 44.1806L42.9131 52.3801L45.6062 53.6647L54.5776 46.3541ZM69.9144 62.6421L70.0389 62.4292C70.2095 62.1844 70.9537 60.91 69.1049 59.4857C66.1862 57.9652 63.3403 55.6662 60.7973 53.2153L54.8153 58.0583L65.3702 63.0927L65.4181 63.1161C65.6179 63.2114 66.6735 63.6918 67.768 63.7638C69.1452 63.8535 69.6258 63.2472 69.9144 62.6421ZM29.1687 44.8335L29.142 44.9964L29.0801 45.1502C29.0714 45.1719 28.8782 45.6853 29.9813 46.2114L39.6791 50.837L50.9056 41.6052L48.0564 39.6242C41.2553 41.3129 39.7848 40.6115 39.2904 40.3757C39.1868 40.3263 39.0896 40.2717 39.0008 40.2117C36.0288 38.7442 35.3579 37.021 35.2525 36.6847L35.1727 36.4315L35.2606 33.449C35.1966 33.4031 35.1345 33.3603 35.0753 33.3211C33.5285 35.0911 30.0532 39.5552 29.1687 44.8335Z" fill="#17181A"/>
</g>
<g clip-path="url(#clip1_69_8952)">
<circle cx="126.675" cy="48.675" r="48.675" fill="url(#paint1_linear_69_8952)"/>
<path d="M147.391 42.465C146.479 39.8905 145.101 37.5539 143.296 35.5178C141.426 33.4117 139.18 31.7237 136.615 30.5003C134.052 29.2827 131.329 28.5959 128.514 28.4722C125.796 28.3507 123.113 28.7503 120.538 29.6619C117.963 30.5735 115.627 31.9511 113.591 33.756C111.485 35.6255 109.797 37.8707 108.573 40.4354C107.352 42.9962 106.667 45.7249 106.54 48.5381C106.419 51.2563 106.819 53.9392 107.73 56.5137C108.642 59.0883 110.02 61.4249 111.825 63.461C113.695 65.5671 115.941 67.255 118.506 68.4785C121.067 69.7 123.796 70.3847 126.609 70.5124C129.327 70.634 132.01 70.2344 134.585 69.3228C137.16 68.4112 139.496 67.0336 141.532 65.2287C143.639 63.3592 145.326 61.114 146.55 58.5492C147.771 55.9885 148.456 53.2598 148.583 50.4466C148.702 47.7224 148.301 45.0435 147.391 42.465ZM124.063 29.7764C124.297 29.7266 124.531 29.6669 124.766 29.627C125.996 29.4203 127.266 29.3849 128.511 29.4448C131.162 29.5736 133.795 30.2324 136.197 31.3778C137.796 32.1408 139.333 33.1382 140.675 34.2973C139.947 34.2535 138.977 34.3684 137.214 34.8399C136.226 34.2316 135.175 33.7253 134.07 33.3208C132.627 32.7941 131.093 32.4391 129.508 32.2708C128.078 32.1174 126.875 32.1457 126.042 32.2086C125.212 31.372 124.121 30.3328 123.581 29.8209C123.666 29.9004 123.97 29.7959 124.063 29.7764ZM139.096 42.7731L131.621 50.0871L123.117 47.8669L119.85 38.1468C121.723 35.3387 125.064 33.6519 125.064 33.6519C125.08 33.6497 126.893 33.3195 129.414 33.5969C130.886 33.7555 132.305 34.0849 133.643 34.576C134.734 34.9788 135.767 35.4914 136.738 36.1059L139.096 42.7731ZM110.444 40.549C109.63 41.7422 108.948 43.0575 108.411 44.4512C108.404 44.0659 108.406 43.7437 108.415 43.4885C108.693 42.5978 109.04 41.7156 109.455 40.8461C110.729 38.1737 112.52 35.9088 114.651 34.1199C113.965 35.2613 113.429 36.5284 113.064 37.5097C112.082 38.4174 111.206 39.4338 110.444 40.549ZM108.726 48.205C108.864 47.4434 109.117 46.3595 109.57 45.1314C110.084 43.7461 110.75 42.443 111.552 41.2737C112.166 40.3767 112.859 39.5515 113.625 38.8058C115.467 38.323 117.516 38.5024 118.62 38.6618L121.826 48.2012L117.753 55.037L110.594 54.1538C109.574 52.2474 109.02 50.103 108.726 48.205ZM122.552 67.5099C120.746 67.755 117.164 66.3112 115.728 65.6894C114.311 64.6562 113.037 63.4365 111.94 62.0712C110.981 60.8792 110.154 59.5741 109.491 58.1909C109.528 58.1645 110.248 56.1724 110.587 55.4823L117.819 56.376L123.534 62.9255L122.57 67.5036C122.558 67.5079 122.552 67.5099 122.552 67.5099ZM137.527 66.9021C135.716 67.9378 133.744 68.7651 131.679 69.1216C129.744 69.4521 127.638 68.8784 125.78 68.3396C125.639 68.2967 123.862 67.7821 123.876 67.7206L124.843 63.1385L132.43 60.2798L139.438 62.8638C139.032 63.9823 138.424 65.6065 138.049 66.5979C137.873 66.6999 137.701 66.804 137.527 66.9021ZM140.191 61.5828C140.148 61.6112 140.104 61.6437 140.057 61.6802L133.078 59.1054L132.482 51.0951L139.974 43.7649L144.431 46.248C145.018 47.5318 145.45 48.8541 145.716 50.1854C146.045 51.8556 146.115 53.5483 145.918 55.2124C143.292 59.4043 141.061 61.0526 140.191 61.5828ZM147.349 52.7466C147.317 51.7964 147.205 50.8418 147.015 49.8945C146.716 48.3958 146.22 46.9106 145.539 45.4743C145.817 44.3681 146.016 42.5142 145.311 40.1316C145.329 40.1648 145.346 40.2021 145.364 40.2353C145.424 40.3469 145.477 40.4606 145.537 40.5721C146.182 41.8786 146.684 43.2491 147.034 44.6599C147.682 47.2848 147.806 50.032 147.372 52.7086C147.36 52.7227 147.355 52.7346 147.349 52.7466Z" fill="#17181A"/>
</g>
<defs>
<linearGradient id="paint0_linear_69_8952" x1="48.675" y1="2.45869e-08" x2="49.5" y2="135.3" gradientUnits="userSpaceOnUse">
<stop stop-color="#58B1FF"/>
<stop offset="1" stop-color="#00E591"/>
</linearGradient>
<linearGradient id="paint1_linear_69_8952" x1="126.675" y1="0" x2="126.675" y2="97.35" gradientUnits="userSpaceOnUse">
<stop stop-color="#C258FF"/>
<stop offset="1" stop-color="#654CF4"/>
</linearGradient>
<clipPath id="clip0_69_8952">
<rect width="97.35" height="97.35" fill="white"/>
</clipPath>
<clipPath id="clip1_69_8952">
<rect width="97.35" height="97.35" fill="white" transform="translate(78)"/>
</clipPath>
</defs>
</svg>
