<svg width="176" height="98" viewBox="0 0 176 98" fill="none" xmlns="http://www.w3.org/2000/svg">
<g clip-path="url(#clip0_146_9014)">
<circle cx="48.675" cy="48.675" r="48.675" fill="url(#paint0_linear_146_9014)"/>
<path d="M33.7819 54.7722L33.7819 35.6412C33.7819 35.6395 33.7819 35.6398 33.7819 35.6381C33.7818 35.5817 33.7774 30.9781 34.65 29.4453C36.1939 26.7332 37.4632 33.1946 37.7977 35.1183C37.8501 35.4197 38.11 35.6387 38.4159 35.6387L42.5551 35.6386C42.9125 35.6386 43.1987 35.3383 43.1971 34.9809C43.1911 33.694 43.3256 30.8469 44.55 29.4442C46.0118 27.7696 48.675 27.7954 50.325 28.6201C51.876 29.3953 51.6342 34.7691 51.5996 35.4115C51.5973 35.4541 51.5993 35.4955 51.6045 35.5378C51.6087 35.5726 51.6121 35.6064 51.6147 35.6389V40.8557M33.7819 54.7722V61.6453C33.7819 63.0131 34.8908 64.122 36.2587 64.122H37.1565H37.8841M33.7819 54.7722C37.0327 54.6071 43.5095 56.2459 43.4104 64.122M43.4104 64.122H40.0667H38.6116H37.8841M43.4104 64.122H44.3082H44.8933M51.6147 40.8557H46.785M51.6147 40.8557V44.7102M51.6147 44.7102L46.785 44.8296M51.6147 44.7102L52.8 47.8499M52.8 47.8499L47.85 48.6749M52.8 47.8499C53.0226 48.6107 53.6335 49.2088 54.45 49.679M37.8841 64.122C35.431 66.398 31.35 71.1151 34.65 71.7751C37.95 72.4351 58.575 72.0501 68.475 71.7751C70.9993 71.623 74.3004 69.8796 67.3114 64.122M67.3114 64.122H65.268H61.3052H60.3919M67.3114 64.122H69.3547H69.6895C70.3466 64.122 70.976 63.8573 71.4355 63.3876V63.3876C71.869 62.9444 72.129 62.3529 72.0819 61.7348C71.815 58.2318 69.7099 52.4572 62.6984 51.3975C62.3447 51.3933 59.7452 51.3213 57.2868 50.7289M44.8933 64.122H59.4785H60.3919M44.8933 64.122C42.9191 65.4803 39.8586 68.2246 43.4104 68.3359C46.9621 68.4472 56.65 68.4751 61.05 68.4751C63.0863 68.598 65.8053 67.8996 60.3919 64.122M54.45 49.679L50.325 51.9749M54.45 49.679C55.2544 50.1421 56.2582 50.4811 57.2868 50.7289M57.2868 50.7289L55.275 54.4499" stroke="black" stroke-width="2.2" stroke-linecap="round"/>
</g>
<g clip-path="url(#clip1_146_9014)">
<circle cx="126.675" cy="48.675" r="48.675" fill="url(#paint1_linear_146_9014)"/>
<path fill-rule="evenodd" clip-rule="evenodd" d="M133.657 71.2154C133.657 71.7067 133.223 72.604 131.597 73.4983C130.07 74.3384 127.927 74.8976 125.7 74.8976C123.475 74.8976 121.343 74.3386 119.828 73.5005C118.219 72.6101 117.785 71.714 117.785 71.2154C117.785 70.7169 118.219 69.8207 119.828 68.9303C121.343 68.0922 123.475 67.5332 125.7 67.5332C127.927 67.5332 130.07 68.0924 131.597 68.9325C133.223 69.8268 133.657 70.7242 133.657 71.2154ZM133.666 74.41C131.801 75.852 128.788 76.795 125.7 76.795C122.586 76.795 119.563 75.8355 117.714 74.3721L117.703 75.2462C117.705 76.3476 118.408 77.4844 119.849 78.393C121.282 79.2966 123.336 79.8905 125.7 79.8905C128.097 79.8905 130.163 79.3022 131.588 78.4029C132.988 77.5191 133.666 76.4155 133.666 75.3253V74.41ZM135.554 71.2423C135.554 71.2334 135.554 71.2244 135.554 71.2154C135.554 68.1339 130.725 65.6357 125.7 65.6357C120.706 65.6357 115.947 68.1033 115.888 71.1588L115.858 71.1584L115.806 75.2283L115.805 75.2283V75.2405C115.805 77.2188 117.063 78.8791 118.837 79.9979C120.621 81.1234 123.04 81.788 125.7 81.788C128.383 81.788 130.817 81.1334 132.6 80.0074C134.339 78.9098 135.563 77.283 135.563 75.3253V71.2423H135.554Z" fill="black"/>
<path d="M130.511 75.2393V79.9829" stroke="black" stroke-width="1.32823"/>
<path d="M125.767 69.5467C127.032 69.2304 129.752 69.1672 130.511 71.4441" stroke="black" stroke-width="1.32823"/>
<path d="M137.273 60.6644H139.211L143.903 55.7688V52.5731M143.903 51.0432V52.5731M134.281 60.6644H132.038M143.903 41.082V42.6459M124.626 60.6644H122.263M142.237 32.8887H143.903V36.1864L119.901 60.6644H122.263M114.733 60.6644H112.795M132.48 32.8887H134.587M108.002 57.5027V56.1088V55.6668M122.96 32.8887H124.218M108.002 47.5415V46.2156M112.659 32.8887H115.141M108.002 37.8523V36.1864M108.002 36.1864V41.201V46.2156M108.002 36.1864L132.038 60.6644M112.795 60.6644H109.905L137.273 32.8887H134.876H134.587M112.795 60.6644L108.002 55.6668M108.002 55.6668V52.3691L127.856 32.8887H124.218M108.002 55.6668V50.9412V46.2156M117.419 60.6644H122.263M122.263 60.6644L108.002 46.2156M108.002 46.2156V42.3739L117.623 32.8887H115.141M127.244 60.6644H132.038M132.038 60.6644H129.352L143.903 45.9096V42.6459M108.002 32.8887H115.141M115.141 32.8887L142.101 60.6644H143.903V57.0607M119.289 32.8887H124.218M124.218 32.8887L143.903 52.5731M129.182 32.8887H134.587M134.587 32.8887L143.903 42.6459" stroke="black" stroke-width="0.948733"/>
<path d="M104.432 65.4928H101.1C101.111 55.1803 101.154 33.9433 101.236 31.4955C101.318 29.0477 105.384 26.4345 107.423 26.4299C117.498 26.4073 138.891 26.3755 143.869 26.4299C148.846 26.4843 150.43 30.5096 150.6 32.5154V65.3908H147.2V33.0594C147.2 31.2371 144.979 30.419 143.869 30.2377C132.479 30.215 109.246 30.1833 107.423 30.2377C105.601 30.292 104.67 32.3908 104.432 33.4334V65.4928Z" stroke="black" stroke-width="1.89747"/>
<path d="M107.899 32.8213V60.699H143.903V32.8213H107.899Z" stroke="black" stroke-width="1.32823"/>
<path d="M105.894 30.9858L107.968 32.9917" stroke="black" stroke-width="1.32823"/>
<path d="M143.835 32.8894L145.637 31.0195" stroke="black" stroke-width="1.32823"/>
<path d="M107.967 60.665L104.636 63.7248" stroke="black" stroke-width="1.32823"/>
<path d="M143.8 60.5635L147.03 63.8272" stroke="black" stroke-width="1.32823"/>
</g>
<defs>
<linearGradient id="paint0_linear_146_9014" x1="48.675" y1="2.45869e-08" x2="49.5" y2="135.3" gradientUnits="userSpaceOnUse">
<stop stop-color="#58B1FF"/>
<stop offset="1" stop-color="#00E591"/>
</linearGradient>
<linearGradient id="paint1_linear_146_9014" x1="126.675" y1="0" x2="126.675" y2="97.35" gradientUnits="userSpaceOnUse">
<stop stop-color="#C258FF"/>
<stop offset="1" stop-color="#654CF4"/>
</linearGradient>
<clipPath id="clip0_146_9014">
<rect width="97.35" height="97.35" fill="white"/>
</clipPath>
<clipPath id="clip1_146_9014">
<rect width="97.35" height="97.35" fill="white" transform="translate(78)"/>
</clipPath>
</defs>
</svg>
