<svg preserveAspectRatio="xMinYMin slice" width="100%" height="100%" viewBox="0 0 32 32" fill="none" xmlns="http://www.w3.org/2000/svg">
    <circle cx="16" cy="16" r="16" fill="#E5004D"/>
    <path fill-rule="evenodd" clip-rule="evenodd" d="M12.0837 10.4167H9.58366V12.9167H7.91699V10.4167H5.41699V8.75H7.91699V6.25H9.58366V8.75H12.0837V10.4167ZM20.2753 10.4167H22.917C23.8337 10.4167 24.5837 11.1667 24.5837 12.0833V22.0833C24.5837 23 23.8337 23.75 22.917 23.75H9.58366C8.66699 23.75 7.91699 23 7.91699 22.0833V14.5833H9.58366V22.0833H22.917V12.0833H19.542L18.017 10.4167H13.7503V8.75H18.7503L20.2753 10.4167ZM16.2503 21.25C13.9503 21.25 12.0837 19.3833 12.0837 17.0833C12.0837 14.7833 13.9503 12.9167 16.2503 12.9167C18.5503 12.9167 20.417 14.7833 20.417 17.0833C20.417 19.3833 18.5503 21.25 16.2503 21.25ZM16.2503 14.5833C17.6253 14.5833 18.7503 15.7083 18.7503 17.0833C18.7503 18.4583 17.6253 19.5833 16.2503 19.5833C14.8753 19.5833 13.7503 18.4583 13.7503 17.0833C13.7503 15.7083 14.8753 14.5833 16.2503 14.5833Z" fill="white"/>
</svg>
