<svg  viewBox="0 0 20 19" fill="currentColor" xmlns="http://www.w3.org/2000/svg">
<g clip-path="url(#clip0_904_65050)">
<path d="M18.461 2.59704C18.1815 2.31705 17.728 2.31657 17.4485 2.59585L8.85795 11.1637L5.7585 7.79744C5.49068 7.50672 5.03787 7.48787 4.74668 7.75565C4.4557 8.02347 4.43707 8.4765 4.70489 8.76748L8.30918 12.6818C8.44118 12.8253 8.62591 12.9086 8.82069 12.9126C8.82593 12.9129 8.83097 12.9129 8.83598 12.9129C9.02528 12.9129 9.20737 12.8377 9.34152 12.704L18.4596 3.60979C18.7398 3.33055 18.7403 2.87703 18.461 2.59704Z" fill="currentColor"/>
<path d="M18.2878 8.7839C17.8923 8.7839 17.5717 9.10445 17.5717 9.5C17.5717 13.9488 13.9527 17.5678 9.50391 17.5678C5.05538 17.5678 1.43607 13.9488 1.43607 9.5C1.43607 5.05148 5.05538 1.43216 9.50391 1.43216C9.89942 1.43216 10.22 1.11161 10.22 0.7161C10.22 0.320551 9.89942 0 9.50391 0C4.26555 0 0.00390625 4.26164 0.00390625 9.5C0.00390625 14.7381 4.26555 19 9.50391 19C14.742 19 19.0039 14.7381 19.0039 9.5C19.0039 9.10449 18.6834 8.7839 18.2878 8.7839Z" fill="currentColor"/>
</g>
<defs>
<clipPath id="clip0_904_65050">
<rect width="19" height="19" fill="white" transform="translate(0.00390625)"/>
</clipPath>
</defs>
</svg>
