<svg viewBox="0 0 18 19" fill="none" xmlns="http://www.w3.org/2000/svg">
    <path fill-rule="evenodd" clip-rule="evenodd" d="M5.95837 3.08081L4.99747 1.92896L1.54199 4.81166L2.50282 5.9635L5.95837 3.08081ZM13.0024 1.92941L16.4579 4.81211L15.497 5.96395L12.0415 3.08126L13.0024 1.92941ZM9.37499 6.57116H8.24999V11.0712L11.8125 13.2087L12.375 12.2862L9.37499 10.5087V6.57116ZM8.99999 3.57116C5.27249 3.57116 2.24999 6.59365 2.24999 10.3212C2.24999 14.0487 5.27249 17.0712 8.99999 17.0712C12.7275 17.0712 15.75 14.0487 15.75 10.3212C15.75 6.59365 12.7275 3.57116 8.99999 3.57116ZM3.74999 10.3212C3.74999 13.2162 6.10499 15.5712 8.99999 15.5712C11.895 15.5712 14.25 13.2162 14.25 10.3212C14.25 7.42616 11.895 5.07116 8.99999 5.07116C6.10499 5.07116 3.74999 7.42616 3.74999 10.3212Z" fill="#9899A0"/>
</svg>
