<svg viewBox="0 0 24 24" fill="none" xmlns="http://www.w3.org/2000/svg">
<path d="M13.151 11.5239C13.1803 11.5232 13.2083 11.5206 13.2357 11.5166L13.2317 11.5173L19.228 11.5173C19.2313 11.5173 19.2346 11.5173 19.2386 11.5173C19.6593 11.5173 20 11.1797 20 10.763C20 10.3462 19.6593 10.0087 19.2386 10.0087C19.2346 10.0087 19.2313 10.0087 19.2273 10.0087L14.9744 10.0087L19.766 5.26152C19.9033 5.12479 19.988 4.93721 19.988 4.72914C19.988 4.31236 19.6466 3.97483 19.226 3.97483C19.0166 3.97483 18.8266 4.05872 18.6893 4.19413L13.8977 8.94126L13.8977 4.72782C13.8977 4.72452 13.8977 4.72122 13.8977 4.71725C13.8977 4.30047 13.557 3.96294 13.1363 3.96294C12.7156 3.96294 12.3749 4.30047 12.3749 4.71725C12.3749 4.72122 12.3749 4.72452 12.3749 4.72848L12.3749 4.72782L12.3749 10.6705C12.3709 10.7002 12.3683 10.7352 12.3683 10.7702C12.3683 11.187 12.709 11.5245 13.1296 11.5245C13.137 11.5245 13.145 11.5245 13.1523 11.5239L13.151 11.5239Z" fill="#FD514B"/>
<path d="M11.6238 19.3476C11.6238 19.7604 11.2891 20.0953 10.8731 20.1019L10.8631 20.1019C10.4431 20.1019 10.1017 19.7644 10.1017 19.3476L10.1017 19.3377L10.1017 15.1236L5.31012 19.8721C5.17678 20.0075 4.99211 20.0933 4.78676 20.0993L4.7881 20.0993C4.78076 20.0999 4.77276 20.0999 4.76543 20.0999C4.34474 20.0999 4.00406 19.7624 4.00406 19.3456C4.00406 19.1336 4.09206 18.9427 4.23407 18.8053L9.02498 14.0582L4.77276 14.0582L4.76143 14.0582C4.34074 14.0582 4.00005 13.7207 4.00005 13.3039C4.00005 12.8871 4.34074 12.5496 4.76143 12.5496L4.77209 12.5496L10.8631 12.5496L10.8724 12.5496L10.8811 12.5496L10.8817 12.5496C11.0531 12.5535 11.2104 12.6137 11.3344 12.7108L11.3351 12.7114C11.3378 12.7134 11.3398 12.716 11.3418 12.7174L11.3431 12.7187C11.3984 12.7629 11.4471 12.8151 11.4898 12.8752L11.4878 12.8726C11.4911 12.8772 11.4944 12.8818 11.4991 12.8898L11.4971 12.8871C11.5078 12.903 11.5171 12.9188 11.5284 12.9386L11.5264 12.9347C11.5295 12.9396 11.5326 12.9445 11.5368 12.953C11.5683 13.012 11.5926 13.0768 11.6084 13.1493L11.6078 13.1447C11.6091 13.1513 11.6104 13.1586 11.6124 13.1705L11.6118 13.1658C11.6151 13.185 11.6184 13.2042 11.6204 13.2266L11.6204 13.224C11.6204 13.2273 11.6204 13.2306 11.6211 13.2365L11.6204 13.2332C11.6224 13.2544 11.6238 13.2762 11.6238 13.298L11.6238 13.2999L11.6238 13.3019L11.6238 19.3364L11.6238 19.3476Z" fill="#FD514B"/>
</svg>
