<svg width="12" height="7" viewBox="0 0 12 7" fill="none" xmlns="http://www.w3.org/2000/svg">
<path d="M10.9997 0.669699C10.6097 0.281975 9.97974 0.281975 9.5897 0.669699L5.9997 4.2097L2.4597 0.669699C2.06967 0.281975 1.43974 0.281975 1.0497 0.669699C0.860392 0.857466 0.753906 1.11306 0.753906 1.3797C0.753906 1.64634 0.860392 1.90193 1.0497 2.0897L5.2897 6.3297C5.47747 6.51901 5.73307 6.6255 5.9997 6.6255C6.26634 6.6255 6.52194 6.51901 6.7097 6.3297L10.9997 2.0897C11.189 1.90193 11.2955 1.64634 11.2955 1.3797C11.2955 1.11306 11.189 0.857466 10.9997 0.669699Z" fill="#3B424F"/>
</svg>
