<svg  viewBox="0 0 20 20" fill="none" xmlns="http://www.w3.org/2000/svg">
<path d="M10.0007 11.8333C9.77403 11.8333 9.5525 11.9005 9.36406 12.0264C9.17563 12.1523 9.02877 12.3312 8.94204 12.5406C8.85532 12.75 8.83263 12.9804 8.87684 13.2026C8.92105 13.4249 9.03018 13.6291 9.19043 13.7893C9.35068 13.9496 9.55484 14.0587 9.77711 14.1029C9.99938 14.1471 10.2298 14.1244 10.4391 14.0377C10.6485 13.951 10.8275 13.8041 10.9534 13.6157C11.0793 13.4272 11.1465 13.2057 11.1465 12.9791C11.1465 12.6752 11.0258 12.3837 10.8109 12.1689C10.596 11.954 10.3045 11.8333 10.0007 11.8333ZM10.0007 10.4583C10.2438 10.4583 10.4769 10.3617 10.6488 10.1898C10.8207 10.0179 10.9173 9.7847 10.9173 9.54158V6.79158C10.9173 6.54847 10.8207 6.31531 10.6488 6.1434C10.4769 5.9715 10.2438 5.87492 10.0007 5.87492C9.75754 5.87492 9.52438 5.9715 9.35247 6.1434C9.18057 6.31531 9.08399 6.54847 9.08399 6.79158V9.54158C9.08399 9.7847 9.18057 10.0179 9.35247 10.1898C9.52438 10.3617 9.75754 10.4583 10.0007 10.4583ZM10.0007 0.833252C8.18766 0.833252 6.41538 1.37087 4.90793 2.37811C3.40048 3.38536 2.22556 4.817 1.53176 6.49199C0.837956 8.16698 0.656426 10.0101 1.01012 11.7882C1.36382 13.5664 2.23686 15.1997 3.51884 16.4817C4.80082 17.7637 6.43417 18.6368 8.21233 18.9904C9.99049 19.3441 11.8336 19.1626 13.5086 18.4688C15.1836 17.775 16.6152 16.6001 17.6225 15.0926C18.6297 13.5852 19.1673 11.8129 19.1673 9.99992C19.1646 7.5696 18.198 5.23959 16.4795 3.52109C14.761 1.80259 12.431 0.835955 10.0007 0.833252ZM10.0007 17.3333C8.55026 17.3333 7.13243 16.9032 5.92647 16.0974C4.72051 15.2916 3.78058 14.1463 3.22554 12.8063C2.6705 11.4663 2.52527 9.99178 2.80823 8.56926C3.09119 7.14673 3.78962 5.84005 4.81521 4.81447C5.84079 3.78888 7.14747 3.09045 8.56999 2.80749C9.99252 2.52454 11.467 2.66976 12.807 3.2248C14.147 3.77984 15.2923 4.71978 16.0981 5.92574C16.9039 7.1317 17.334 8.54952 17.334 9.99992C17.3318 11.9442 16.5584 13.8081 15.1836 15.1829C13.8089 16.5577 11.9449 17.331 10.0007 17.3333Z" fill="#E5004D"/>
</svg>
