<svg viewBox="0 0 24 24" fill="none" xmlns="http://www.w3.org/2000/svg">
    <path d="M5.66644 18.9994C5.69113 18.9989 5.7147 18.9966 5.73771 18.9933L5.73434 18.9938L10.7817 18.9938C10.7845 18.9938 10.7873 18.9938 10.7906 18.9938C11.1448 18.9938 11.4315 18.7071 11.4315 18.353C11.4315 17.9988 11.1448 17.7121 10.7906 17.7121C10.7873 17.7121 10.7845 17.7121 10.7811 17.7121L7.20129 17.7121L11.2345 13.6788C11.3501 13.5627 11.4214 13.4033 11.4214 13.2265C11.4214 12.8724 11.1341 12.5856 10.78 12.5856C10.6038 12.5856 10.4438 12.6569 10.3282 12.7719L6.29497 16.8052L6.29497 13.2254C6.29497 13.2226 6.29497 13.2198 6.29497 13.2164C6.29497 12.8623 6.0082 12.5755 5.65409 12.5755C5.29999 12.5755 5.01322 12.8623 5.01322 13.2164C5.01322 13.2198 5.01322 13.2226 5.01322 13.2259L5.01322 13.2254L5.01322 18.2744C5.00985 18.2996 5.00761 18.3294 5.00761 18.3591C5.00761 18.7132 5.29437 19 5.64848 19C5.65466 19 5.66139 19 5.66756 18.9994L5.66644 18.9994Z" fill="#C6C5C5"/>
    <path d="M19.0005 10.7758C19.0005 11.1265 18.7188 11.411 18.3686 11.4166L18.3602 11.4166C18.0066 11.4166 17.7193 11.1299 17.7193 10.7758L17.7193 10.7673L17.7193 7.18696L13.686 11.2213C13.5738 11.3364 13.4184 11.4093 13.2455 11.4144L13.2466 11.4144C13.2405 11.4149 13.2337 11.4149 13.2276 11.4149C12.8734 11.4149 12.5867 11.1282 12.5867 10.7741C12.5867 10.5939 12.6608 10.4317 12.7803 10.315L16.813 6.28176L13.2337 6.28176L13.2242 6.28176C12.8701 6.28176 12.5833 5.995 12.5833 5.64089C12.5833 5.28678 12.8701 5.00001 13.2242 5.00001L13.2332 5.00001L18.3602 5.00001L18.368 5.00001L18.3753 5.00001L18.3759 5.00001C18.5201 5.00338 18.6526 5.05445 18.7569 5.13694L18.7575 5.1375C18.7597 5.13918 18.7614 5.14143 18.7631 5.14255L18.7642 5.14367C18.8108 5.18127 18.8518 5.22561 18.8877 5.27667L18.886 5.27443C18.8888 5.27836 18.8916 5.28229 18.8955 5.28902L18.8939 5.28678C18.9028 5.30025 18.9107 5.31371 18.9202 5.33055L18.9186 5.32718C18.9212 5.33134 18.9238 5.3355 18.9272 5.34277C18.9538 5.39286 18.9743 5.44792 18.9876 5.50957L18.987 5.50564C18.9881 5.51125 18.9893 5.51742 18.9909 5.52753L18.9904 5.5236C18.9932 5.53987 18.996 5.55615 18.9977 5.57523L18.9977 5.57298C18.9977 5.57579 18.9977 5.57859 18.9982 5.58364L18.9977 5.58084C18.9994 5.5988 19.0005 5.61732 19.0005 5.63584L19.0005 5.63752L19.0005 5.6392L19.0005 10.7662L19.0005 10.7758Z" fill="#C6C5C5"/>
</svg>
