<svg  viewBox="0 0 16 7" fill="none" xmlns="http://www.w3.org/2000/svg">
<path d="M0.490071 0.358232L0.611032 0.0320372H0.929592C0.981272 0.0251393 1.05615 0.0183946 1.15263 0.0183946C1.39151 0.0183946 1.65184 0.0579426 1.92624 0.136426L2.15472 0.201726L2.63408 1.28776C2.73312 1.34049 2.97136 1.43461 3.41536 1.43461H3.46736C3.59072 1.39644 4.0864 1.19257 5.3248 0.152367L5.50625 0L7.31761 0.297223L7.40113 0.346888C7.44129 0.370648 11.4447 2.7236 14.4077 2.80806L14.4919 2.81757C15.7378 3.05654 16.0674 3.98991 15.9892 4.58558C15.976 5.25514 15.5964 5.77187 14.9167 6.04318C14.7788 6.09806 14.6407 6.1373 14.5085 6.16735V6.51546C14.5085 6.78295 14.2821 7 14.0026 7C13.7231 7 13.4967 6.78295 13.4967 6.51546V6.25012H12.6367V6.51546C12.6367 6.78295 12.4099 7 12.1307 7C11.8515 7 11.6248 6.78295 11.6248 6.51546V6.25012L10.7645 6.24997V6.51546C10.7645 6.78295 10.5379 7 10.2586 7C9.97922 7 9.75266 6.78295 9.75266 6.51546V6.24997H8.8925V6.51546C8.8925 6.78295 8.66609 7 8.38657 7C8.10721 7 7.88065 6.78295 7.88065 6.51546V6.24997H4.66912V6.51546C4.66912 6.78295 4.44256 7 4.1632 7C3.88384 7 3.65712 6.78295 3.65712 6.51546V6.24981H2.31696V6.51546C2.31696 6.78295 2.0904 7 1.81104 7C1.53183 7 1.30527 6.78295 1.30527 6.51546V6.22176C0.604311 6.09975 0.29135 5.59896 0.24143 5.21942C-0.407372 2.89007 0.452791 0.461087 0.490071 0.358232ZM9.03906 5.28012L10.2287 2.78737C9.95586 2.68053 9.69202 2.57123 9.43986 2.46163L8.10609 5.28012H9.03906ZM8.52625 2.04393C8.24225 1.90735 7.98577 1.77797 7.76401 1.66255L6.07185 5.27997H6.99489L8.52625 2.04393ZM14.9778 4.54925L14.9842 4.47322C14.9992 4.38217 15.0373 3.92721 14.3314 3.77576C13.3139 3.73989 12.2131 3.47701 11.1767 3.13135L10.1514 5.28027H13.769L13.7855 5.28043C13.8539 5.28043 14.2127 5.27399 14.5279 5.14829C14.9244 4.98995 14.9778 4.75665 14.9778 4.54925ZM1.22911 5.00328L1.24335 5.05234L1.24655 5.10353C1.24703 5.11074 1.26143 5.27981 1.63951 5.27981H4.96336L6.86849 1.20698L5.80913 1.03331C4.13504 2.41059 3.63104 2.41059 3.4616 2.41059C3.42608 2.41059 3.39168 2.40829 3.35888 2.40339C2.3336 2.38944 1.9168 1.99764 1.84256 1.91777L1.78655 1.85768L1.41391 1.01323C1.38991 1.00893 1.36687 1.00526 1.34511 1.00219C1.14895 1.7024 0.773111 3.41171 1.22911 5.00328Z" fill="currentColor"/>
</svg>
