<svg  viewBox="0 0 17 17" fill="none" xmlns="http://www.w3.org/2000/svg">
<path d="M14.5089 2.35624C13.7286 1.61759 12.8196 1.03783 11.8071 0.632161C10.7589 0.212974 9.64643 0 8.49821 0C7.35179 0.00169027 6.23929 0.212974 5.19107 0.633851C4.17857 1.03952 3.26964 1.61928 2.48929 2.35793C1.70893 3.09657 1.09643 3.95692 0.667857 4.91531C0.225 5.90749 0 6.96053 0 8.04738C0 9.13255 0.225 10.1873 0.667857 11.1795C1.09643 12.1378 1.70893 12.9982 2.48929 13.7368C3.26964 14.4755 4.17857 15.0552 5.19107 15.4609C6.23929 15.8801 7.35179 16.0931 8.5 16.0931C9.64643 16.0931 10.7607 15.8801 11.8089 15.4609C12.8214 15.0552 13.7304 14.4755 14.5107 13.7368C15.2911 12.9982 15.9036 12.1378 16.3322 11.1795C16.775 10.1873 17 9.13424 17 8.04738C17 6.96222 16.775 5.90749 16.3322 4.91531C15.9018 3.95523 15.2893 3.09657 14.5089 2.35624ZM3.79464 1.81704C3.87143 1.76126 3.94643 1.7021 4.025 1.6497C4.4375 1.37588 4.89464 1.15445 5.35893 0.970215C6.34821 0.578072 7.42321 0.371859 8.49821 0.371859C9.21429 0.371859 9.94821 0.463134 10.6393 0.642303C10.3661 0.747099 10.0321 0.946551 9.47143 1.39954C9.00534 1.35222 8.53393 1.35053 8.06071 1.39278C7.44284 1.44856 6.82143 1.57871 6.21429 1.78154C5.66607 1.96409 5.23214 2.172 4.93929 2.33088C4.49107 2.17876 3.9125 1.99959 3.62679 1.9117C3.67143 1.92522 3.76429 1.83901 3.79464 1.81704ZM11.5375 3.82846L10.0839 7.58424L6.59643 8.21809L3.71429 5.40041C3.90893 4.12257 4.83393 2.99009 4.83393 2.99009C4.83929 2.98671 5.44286 2.57428 6.41071 2.25482C6.97502 2.0672 7.55 1.94719 8.12321 1.89648C8.59107 1.85592 9.05714 1.86268 9.51786 1.91508L11.5375 3.82846ZM0.701786 7.77862C0.6125 8.32458 0.592857 8.89082 0.639286 9.46044C0.569643 9.32862 0.514286 9.21708 0.473214 9.12748C0.419643 8.77421 0.392857 8.41247 0.392857 8.04401C0.392857 6.91153 0.651786 5.83483 1.11786 4.8663C1.06607 5.37339 1.09107 5.89906 1.12857 6.29796C0.928571 6.77291 0.785714 7.26816 0.701786 7.77862ZM1.40714 10.7045C1.325 10.4188 1.22857 10.003 1.18036 9.50441C1.12679 8.94153 1.14286 8.38207 1.23214 7.84623C1.3 7.4355 1.40893 7.03661 1.55893 6.6529C2.14643 6.18301 2.925 5.90749 3.35536 5.78072L6.18393 8.54601L5.8875 11.5767L3.12321 12.4505C2.41964 11.9604 1.84464 11.3113 1.40714 10.7045ZM9.80714 15.0924C9.19107 15.4744 7.63393 15.5657 7.00179 15.5877C6.30536 15.4643 5.62857 15.253 4.99105 14.9623C4.43391 14.7087 3.90534 14.3943 3.4232 14.0259C3.43212 14.0107 3.3482 13.2044 3.35177 12.9103L6.14462 12.028L9.36784 13.3481L9.81246 15.0874C9.80893 15.0907 9.80714 15.0924 9.80714 15.0924ZM15.1625 12.4167C14.6821 13.0725 14.1071 13.6827 13.4161 14.1459C12.7679 14.5786 11.9 14.7273 11.1286 14.8473C11.0696 14.8558 10.3321 14.9707 10.3268 14.9471L9.88216 13.2061L12.1518 10.9699L15.1571 10.7079C15.2036 11.1609 15.2643 11.8217 15.3 12.2257C15.2536 12.29 15.2089 12.3542 15.1625 12.4167ZM15.2089 10.1416C15.1982 10.1585 15.1875 10.1771 15.1768 10.1974L12.1839 10.4577L10.5732 7.79045L12.0304 4.02622L14.0875 4.14961C14.525 4.49612 14.9125 4.8815 15.2411 5.29731C15.6518 5.8196 15.9714 6.3926 16.1893 6.99941C15.9607 8.87901 15.4339 9.81538 15.2089 10.1416ZM16.2821 5.91257C16.1054 5.58972 15.8982 5.27871 15.6643 4.98292C15.2946 4.51471 14.8554 4.08369 14.3571 3.7C14.2661 3.27236 14.0161 2.59964 13.3446 1.8931C13.3571 1.90155 13.3696 1.9117 13.3822 1.92015C13.4232 1.94888 13.4625 1.97931 13.5036 2.00804C13.9661 2.35286 14.3875 2.74331 14.7607 3.17264C15.4536 3.97213 15.9768 4.90009 16.2839 5.89566C16.2821 5.90242 16.2821 5.90749 16.2821 5.91257Z" fill="currentColor"/>
</svg>
