<svg viewBox="0 0 59 59" fill="none" xmlns="http://www.w3.org/2000/svg">
<g clip-path="url(#clip0_341_7682)">
<circle cx="29.5" cy="29.5" r="29.5" fill="url(#paint0_linear_341_7682)"/>
<path d="M20.2889 18.335L20.7779 17.8602L21.3412 18.1289C21.4384 18.1603 21.5765 18.2115 21.7471 18.2929C22.1695 18.4943 22.5965 18.7838 23.0155 19.1541L23.3645 19.4622L23.2961 21.7869C23.4268 21.9637 23.7687 22.3311 24.5538 22.7056L24.6457 22.7494C24.8961 22.786 25.9445 22.8435 29.0117 22.0487L29.461 21.9323L32.4133 23.9856L32.5191 24.1439C32.5701 24.2198 37.6646 31.757 42.8329 34.4054L42.9737 34.4932C44.9753 35.9666 44.7709 37.895 44.1301 38.8824C43.5422 40.0553 42.435 40.6488 41.0043 40.5553C40.7141 40.536 40.4369 40.4889 40.1778 40.4306L39.8842 41.0461C39.6586 41.5191 39.0752 41.712 38.5809 41.4762C38.0867 41.2405 37.8694 40.6657 38.095 40.1927L38.3188 39.7235L36.7981 38.9982L36.5743 39.4674C36.3487 39.9404 35.7647 40.1329 35.271 39.8975C34.7773 39.662 34.5595 39.0869 34.7851 38.614L35.0089 38.1448L33.4877 37.4189L33.2638 37.8883C33.0382 38.3613 32.4545 38.554 31.9605 38.3184C31.4665 38.0828 31.249 37.5079 31.4746 37.0349L31.6985 36.5655L30.1775 35.84L29.9536 36.3094C29.7279 36.7824 29.1445 36.9753 28.6503 36.7395C28.1563 36.5039 27.9387 35.929 28.1643 35.456L28.3883 34.9866L22.7094 32.2779L22.4855 32.7473C22.2599 33.2203 21.6762 33.4131 21.1822 33.1774C20.6882 32.9418 20.4704 32.3668 20.696 31.8938L20.92 31.4241L18.5503 30.2937L18.3262 30.7635C18.1006 31.2365 17.5169 31.4292 17.0229 31.1936C16.5292 30.9581 16.3117 30.3832 16.5373 29.9102L16.785 29.3909C15.6484 28.5839 15.5174 27.4344 15.7492 26.7212C16.5666 22.055 20.1362 18.4854 20.2889 18.335ZM31.2546 34.2486L35.4606 30.8441C35.0683 30.4251 34.694 30.0093 34.3405 29.6028L29.6049 33.4618L31.2546 34.2486ZM33.0773 28.0937C32.6903 27.6126 32.3459 27.1675 32.0511 26.7764L26.0079 31.7458L27.6401 32.5243L33.0773 28.0937ZM42.3724 37.9651L42.4478 37.8361C42.5512 37.6878 43.0023 36.9154 41.8817 36.0522C40.1129 35.1306 38.3881 33.7373 36.8468 32.2519L33.2214 35.1871L39.6183 38.2382L39.6473 38.2524C39.7684 38.3102 40.4082 38.6013 41.0715 38.6449C41.9062 38.6993 42.1975 38.3319 42.3724 37.9651ZM17.678 27.172L17.6618 27.2708L17.6243 27.364C17.6191 27.3771 17.5019 27.6883 18.1705 28.0071L24.0479 30.8106L30.8519 25.2155L29.1251 24.0149C25.0032 25.0384 24.112 24.6133 23.8124 24.4704C23.7496 24.4404 23.6907 24.4073 23.6368 24.371C21.8356 23.4816 21.429 22.4372 21.3651 22.2334L21.3168 22.0799L21.3701 20.2724C21.3313 20.2445 21.2936 20.2186 21.2577 20.1948C20.3203 21.2676 18.214 23.9731 17.678 27.172Z" fill="#17181A"/>
</g>
<defs>
<linearGradient id="paint0_linear_341_7682" x1="29.5" y1="1.49012e-08" x2="30" y2="82" gradientUnits="userSpaceOnUse">
<stop stop-color="#58B1FF"/>
<stop offset="1" stop-color="#00E591"/>
</linearGradient>
<clipPath id="clip0_341_7682">
<rect width="59" height="59" fill="white"/>
</clipPath>
</defs>
</svg>
