<svg width="24" height="24" viewBox="0 0 24 24" fill="none" xmlns="http://www.w3.org/2000/svg">
<path d="M13.151 11.6318C13.1803 11.6311 13.2083 11.6284 13.2357 11.6244L13.2317 11.6251L19.228 11.6251C19.2313 11.6251 19.2346 11.6251 19.2386 11.6251C19.6593 11.6251 20 11.2844 20 10.8637C20 10.4431 19.6593 10.1024 19.2386 10.1024C19.2346 10.1024 19.2313 10.1024 19.2273 10.1024L14.9744 10.1024L19.766 5.31079C19.9033 5.17278 19.988 4.98344 19.988 4.77343C19.988 4.35274 19.6466 4.01206 19.226 4.01206C19.0166 4.01206 18.8266 4.09673 18.6893 4.2334L13.8977 9.02498L13.8977 4.77209C13.8977 4.76876 13.8977 4.76543 13.8977 4.76143C13.8977 4.34074 13.557 4.00005 13.1363 4.00005C12.7156 4.00005 12.3749 4.34074 12.3749 4.76143C12.3749 4.76543 12.3749 4.76876 12.3749 4.77276L12.3749 4.77209L12.3749 10.7704C12.3709 10.8004 12.3683 10.8357 12.3683 10.8711C12.3683 11.2918 12.709 11.6324 13.1296 11.6324C13.137 11.6324 13.145 11.6324 13.1523 11.6318L13.151 11.6318Z" fill="#C6C5C5"/>
<path d="M11.624 19.5288C11.624 19.9455 11.2893 20.2835 10.8733 20.2902L10.8633 20.2902C10.4433 20.2902 10.1019 19.9495 10.1019 19.5288L10.1019 19.5188L10.1019 15.2652L5.31037 20.0582C5.17703 20.1948 4.99235 20.2815 4.78701 20.2875L4.78834 20.2875C4.78101 20.2882 4.77301 20.2882 4.76567 20.2882C4.34498 20.2882 4.0043 19.9475 4.0043 19.5268C4.0043 19.3128 4.0923 19.1201 4.23431 18.9814L9.02522 14.1898L4.773 14.1898L4.76167 14.1898C4.34098 14.1898 4.0003 13.8492 4.0003 13.4285C4.0003 13.0078 4.34098 12.6671 4.76167 12.6671L4.77234 12.6671L10.8633 12.6671L10.8727 12.6671L10.8813 12.6671L10.882 12.6671C11.0533 12.6711 11.2107 12.7318 11.3347 12.8298L11.3353 12.8304C11.338 12.8324 11.34 12.8351 11.342 12.8364L11.3433 12.8378C11.3987 12.8824 11.4473 12.9351 11.49 12.9958L11.488 12.9931C11.4913 12.9978 11.4947 13.0025 11.4993 13.0105L11.4973 13.0078C11.508 13.0238 11.5174 13.0398 11.5287 13.0598L11.5267 13.0558C11.5298 13.0607 11.5329 13.0657 11.537 13.0743C11.5685 13.1338 11.5929 13.1992 11.6087 13.2725L11.608 13.2678C11.6094 13.2745 11.6107 13.2818 11.6127 13.2938L11.612 13.2891C11.6154 13.3085 11.6187 13.3278 11.6207 13.3505L11.6207 13.3478C11.6207 13.3511 11.6207 13.3545 11.6214 13.3605L11.6207 13.3571C11.6227 13.3785 11.624 13.4005 11.624 13.4225L11.624 13.4245L11.624 13.4265L11.624 19.5175L11.624 19.5288Z" fill="#C6C5C5"/>
</svg>
