<svg width="14" height="14" viewBox="0 0 14 14" fill="none" xmlns="http://www.w3.org/2000/svg">
<path d="M8.7227 4.06546L9.96504 1.58049C9.98379 1.54298 10.0221 1.51929 10.0641 1.51929H11.5363C11.6185 1.51929 11.6721 1.60568 11.6355 1.67928L10.4491 4.06546M8.7227 4.06546L7.33182 6.84754L7.22397 7.03386C7.22054 7.03979 7.21656 7.04539 7.21209 7.05058L7.12651 7.1501C7.11815 7.15982 7.10816 7.16802 7.09699 7.17432L6.9374 7.26439C6.92079 7.27376 6.90205 7.27868 6.88299 7.27868H6.63762L5.72546 7.21684M8.7227 4.06546H10.4491M10.4491 4.06546L7.86624 9.26026C7.85982 9.27318 7.85093 9.28472 7.84007 9.29423L7.69223 9.42379C7.6782 9.43608 7.66131 9.44463 7.6431 9.44864L7.42432 9.49687C7.41649 9.4986 7.4085 9.49947 7.40049 9.49947H5.72546M5.72546 7.21684V9.49947M5.72546 7.21684L5.17655 7.17962M5.72546 9.49947H4.65186M3.86886 7.10785L3.99802 7.09972L4.45813 7.13091M3.86886 7.10785V7.10785C3.83696 7.10249 3.80428 7.10421 3.77311 7.11287L3.62184 7.15492C3.59828 7.16148 3.57607 7.17081 3.55514 7.18346C2.81701 7.62978 1.70341 8.62699 2.58805 9.36382C2.70559 9.46172 2.86007 9.49947 3.01303 9.49947H3.86886M3.86886 7.10785V9.49947M3.86886 9.49947H4.65186M4.45813 7.13091L5.17655 7.17962M4.45813 7.13091L4.59464 8.79988M4.65186 9.49947L4.59464 8.79988M5.17655 7.17962L4.59464 8.79988" stroke="black" stroke-width="0.55352"/>
<path d="M5.48782 11.0496V12.2413C5.48782 12.2516 5.48586 12.2624 5.48961 12.272C5.5001 12.2989 5.54862 12.3476 5.68896 12.4067C5.69794 12.4105 5.7071 12.413 5.71677 12.4143C6.42724 12.5093 7.90688 12.6336 9.06501 12.5185M10.0382 11.0901V12.2447C10.0382 12.2594 10.0359 12.2744 10.0275 12.2865C9.97596 12.3606 9.81789 12.401 9.73951 12.4124C9.53539 12.4599 9.30723 12.4944 9.06501 12.5185M9.06501 12.5185V11.3877" stroke="black" stroke-width="0.55352"/>
<path d="M9.42852 11.0099C9.57177 11.0338 9.69247 11.06 9.78853 11.0869C9.69228 11.1146 9.57121 11.1416 9.42746 11.1663C8.99549 11.2407 8.39904 11.2882 7.75963 11.2882C7.12163 11.2882 6.52604 11.2348 6.09468 11.1546C5.94966 11.1277 5.82763 11.0985 5.73088 11.0689C5.8264 11.0439 5.94602 11.0199 6.08784 10.9981C6.5207 10.9317 7.1183 10.8923 7.75963 10.8923C8.39955 10.8923 8.99631 10.9376 9.42852 11.0099Z" stroke="black" stroke-width="0.442816"/>
</svg>
