<svg width="59" height="59" viewBox="0 0 59 59" fill="none" xmlns="http://www.w3.org/2000/svg">
<g clip-path="url(#clip0_974_26003)">
<circle cx="29.5" cy="29.5" r="29.5" fill="#F2F2F4"/>
<path fill-rule="evenodd" clip-rule="evenodd" d="M33.7314 43.1609C33.7314 43.4586 33.4682 44.0025 32.483 44.5445C31.5575 45.0536 30.2585 45.3925 28.9093 45.3925C27.5603 45.3925 26.2686 45.0538 25.3505 44.5458C24.3752 44.0062 24.1123 43.4631 24.1123 43.1609C24.1123 42.8588 24.3752 42.3156 25.3505 41.776C26.2686 41.268 27.5603 40.9293 28.9093 40.9293C30.2585 40.9293 31.5575 41.2682 32.483 41.7773C33.4682 42.3194 33.7314 42.8632 33.7314 43.1609ZM33.7369 45.097C32.6067 45.971 30.7804 46.5425 28.9093 46.5425C27.0219 46.5425 25.1896 45.9609 24.0692 45.0741L24.0623 45.6038C24.0638 46.2713 24.4899 46.9603 25.3631 47.511C26.2313 48.0586 27.4763 48.4186 28.9093 48.4186C30.3619 48.4186 31.6139 48.062 32.4773 47.517C33.3258 46.9813 33.7369 46.3125 33.7369 45.6517V45.097ZM34.8813 43.1772C34.8813 43.1718 34.8813 43.1664 34.8813 43.1609C34.8813 41.2933 31.9546 39.7793 28.9093 39.7793C25.8827 39.7793 22.9979 41.2748 22.9627 43.1266L22.9442 43.1264L22.9124 45.5929L22.9124 45.5929V45.6004C22.9124 46.7993 23.6746 47.8056 24.7496 48.4836C25.831 49.1657 27.297 49.5685 28.9093 49.5685C30.5353 49.5685 32.0102 49.1718 33.0912 48.4894C34.145 47.8241 34.8869 46.8382 34.8869 45.6517V43.1772H34.8813Z" fill="black"/>
<path d="M31.8247 45.5996V48.4746" stroke="black" stroke-width="0.804985"/>
<path d="M28.9497 42.1495C29.7164 41.9578 31.3647 41.9195 31.8247 43.2995" stroke="black" stroke-width="0.804985"/>
<path d="M35.9232 36.7664H37.0977L39.9411 33.7994V31.8626M39.9411 30.9354V31.8626M34.1101 36.7664H32.7502M39.9411 24.8983V25.8461M28.2584 36.7664H26.8264M38.9315 19.9326H39.9411V21.9312L25.3944 36.7664H26.8264M22.2625 36.7664H21.0881M33.018 19.9326H34.2955M18.1829 34.8502V34.0054V33.7376M27.2488 19.9326H28.0112M18.1829 28.8131V28.0095M21.0057 19.9326H22.5098M18.1829 22.9409V21.9312M18.1829 21.9312V24.9704V28.0095M18.1829 21.9312L32.7502 36.7664M21.0881 36.7664H19.3367L35.9232 19.9326H34.4706H34.2955M21.0881 36.7664L18.1829 33.7376M18.1829 33.7376V31.7389L30.2158 19.9326H28.0112M18.1829 33.7376V30.8735V28.0095M23.8903 36.7664H26.8264M26.8264 36.7664L18.1829 28.0095M18.1829 28.0095V25.6812L24.0139 19.9326H22.5098M29.8449 36.7664H32.7502M32.7502 36.7664H31.1224L39.9411 27.8241V25.8461M18.1829 19.9326H22.5098M22.5098 19.9326L38.8491 36.7664H39.9411V34.5823M25.0235 19.9326H28.0112M28.0112 19.9326L39.9411 31.8626M31.0194 19.9326H34.2955M34.2955 19.9326L39.9411 25.8461" stroke="black" stroke-width="0.574989"/>
<path d="M16.0192 39.6927H14C14.0069 33.4427 14.033 20.5718 14.0824 19.0882C14.1319 17.6047 16.5962 16.021 17.8324 16.0182C23.9382 16.0045 36.9038 15.9852 39.9203 16.0182C42.9368 16.0512 43.897 18.4907 44 19.7064V39.6308H41.9396V20.0361C41.9396 18.9317 40.5934 18.4358 39.9203 18.3259C33.0179 18.3122 18.9368 18.2929 17.8324 18.3259C16.728 18.3589 16.1635 19.6309 16.0192 20.2627V39.6927Z" stroke="black" stroke-width="1.14998"/>
<path d="M18.1208 19.8916V36.7872H39.9409V19.8916H18.1208Z" stroke="black" stroke-width="0.804985"/>
<path d="M16.9053 18.7793L18.1621 19.995" stroke="black" stroke-width="0.804985"/>
<path d="M39.8999 19.933L40.9919 18.7998" stroke="black" stroke-width="0.804985"/>
<path d="M18.1621 36.7666L16.1428 38.621" stroke="black" stroke-width="0.804985"/>
<path d="M39.8789 36.7051L41.8363 38.6831" stroke="black" stroke-width="0.804985"/>
</g>
<defs>
<clipPath id="clip0_974_26003">
<rect width="59" height="59" fill="white"/>
</clipPath>
</defs>
</svg>
