<svg width="59" height="59" viewBox="0 0 59 59" fill="none" xmlns="http://www.w3.org/2000/svg">
<g clip-path="url(#clip0_974_24672)">
<circle cx="29.5" cy="29.5" r="29.5" fill="#F2F2F4"/>
<path d="M20.4738 33.1953L20.4738 21.6008C20.4738 21.5998 20.4738 21.6 20.4738 21.5989C20.4738 21.5648 20.4711 18.7747 21 17.8457C21.9357 16.202 22.7049 20.118 22.9077 21.2839C22.9394 21.4666 23.0969 21.5993 23.2823 21.5993L25.791 21.5993C26.0076 21.5993 26.181 21.4172 26.18 21.2006C26.1764 20.4207 26.2579 18.6952 27 17.845C27.8859 16.8302 29.5 16.8458 30.5 17.3456C31.44 17.8154 31.2934 21.0723 31.2725 21.4616C31.2711 21.4874 31.2723 21.5125 31.2754 21.5381C31.278 21.5593 31.28 21.5797 31.2816 21.5995V24.7611M20.4738 33.1953V37.3608C20.4738 38.1899 21.1459 38.8619 21.9749 38.8619H22.5191H22.96M20.4738 33.1953C22.444 33.0953 26.3693 34.0885 26.3093 38.8619M26.3093 38.8619H24.2828H23.4009H22.96M26.3093 38.8619H26.8534H27.208M31.2816 24.7611H28.3545M31.2816 24.7611V27.0972M31.2816 27.0972L28.3545 27.1695M31.2816 27.0972L32 29M32 29L29 29.5M32 29C32.1349 29.4611 32.5051 29.8236 33 30.1086M22.96 38.8619C21.4733 40.2413 19 43.1001 21 43.5001C23 43.9001 35.5 43.6668 41.5 43.5001C43.0298 43.408 45.0305 42.3514 40.7947 38.8619M40.7947 38.8619H39.5564H37.1546H36.6011M40.7947 38.8619H42.0331H42.236C42.6343 38.8619 43.0157 38.7015 43.2942 38.4168V38.4168C43.5569 38.1482 43.7145 37.7897 43.686 37.4151C43.5242 35.2921 42.2484 31.7923 37.999 31.1501C37.7846 31.1476 36.2092 31.1039 34.7192 30.7449M27.208 38.8619H36.0476H36.6011M27.208 38.8619C26.0115 39.6851 24.1567 41.3484 26.3093 41.4158C28.4619 41.4833 34.3333 41.5001 37 41.5001C38.2341 41.5747 39.882 41.1514 36.6011 38.8619M33 30.1086L30.5 31.5M33 30.1086C33.4875 30.3893 34.0959 30.5947 34.7192 30.7449M34.7192 30.7449L33.5 33" stroke="black" stroke-width="1.33333" stroke-linecap="round"/>
</g>
<defs>
<clipPath id="clip0_974_24672">
<rect width="59" height="59" fill="white"/>
</clipPath>
</defs>
</svg>
