<svg viewBox="0 0 12 12"  xmlns="http://www.w3.org/2000/svg">
<path fill='currentColor'  d="M10.158 4.87905C10.158 5.13793 9.9292 5.61085 9.07246 6.08217C8.26766 6.52492 7.13811 6.81959 5.96483 6.81959C4.79174 6.81959 3.66856 6.52502 2.8702 6.08332C2.02204 5.61408 1.79346 5.14178 1.79346 4.87905C1.79346 4.61631 2.02205 4.144 2.87021 3.67474C3.66857 3.23303 4.79175 2.93845 5.96483 2.93845C7.1381 2.93845 8.26765 3.23314 9.07245 3.6759C9.92919 4.14723 10.158 4.62016 10.158 4.87905ZM10.1628 6.56266C9.18001 7.32261 7.59187 7.81959 5.96483 7.81959C4.32355 7.81959 2.73026 7.31388 1.75594 6.54267L1.75 7.00297C1.75127 7.58346 2.12185 8.18254 2.8811 8.66143C3.63611 9.13762 4.71875 9.45065 5.96483 9.45065C7.22795 9.45065 8.31673 9.1406 9.06748 8.66666C9.80531 8.20087 10.1628 7.61924 10.1628 7.04467V6.56266ZM11.158 4.89286C11.158 4.88826 11.158 4.88366 11.158 4.87905C11.158 3.25502 8.61296 1.93845 5.96483 1.93845C3.33312 1.93845 0.824779 3.23873 0.793755 4.84886L0.777718 4.84865L0.750042 6.99354H0.75V6.99999C0.75 8.04261 1.4128 8.91762 2.34763 9.50724C3.28801 10.1004 4.56278 10.4506 5.96483 10.4506C7.37875 10.4506 8.66132 10.1057 9.60129 9.51226C10.5177 8.93375 11.1628 8.07641 11.1628 7.04467V4.89286H11.158Z" />
<path fill='currentColor' d="M8.5 7V9.5" />
<path fill='currentColor' d="M6 4.00002C6.66667 3.83335 8.1 3.80002 8.5 5.00002" />
</svg>
