<svg width="24" height="24" viewBox="0 0 24 24" fill="none" xmlns="http://www.w3.org/2000/svg">
<path d="M11.5208 15.3706C13.1206 15.3706 14.4175 14.0737 14.4175 12.4739C14.4175 10.8741 13.1206 9.57715 11.5208 9.57715C9.92094 9.57715 8.62402 10.8741 8.62402 12.4739C8.62402 14.0737 9.92094 15.3706 11.5208 15.3706Z" fill="#47A86E"/>
<path d="M7.49587 6.98126C7.08205 6.56744 6.44251 6.56744 6.02869 6.98126C3.01908 9.99087 3.01908 14.9191 6.02869 17.9663C6.21679 18.1544 6.48013 18.2673 6.74347 18.2673C7.00681 18.2673 7.27015 18.1544 7.45825 17.9663C7.87207 17.5525 7.87207 16.913 7.45825 16.4991C5.23867 14.2796 5.23867 10.668 7.45825 8.44845C7.87207 8.03463 7.87207 7.39509 7.49587 6.98126Z" fill="#47A86E"/>
<path d="M17.0139 6.98126C16.6001 6.56744 15.9605 6.56744 15.5467 6.98126C15.1329 7.39509 15.1329 8.03463 15.5467 8.44845C17.7663 10.668 17.7663 14.2796 15.5467 16.4991C15.1329 16.913 15.1329 17.5525 15.5467 17.9663C15.7348 18.1544 15.9981 18.2673 16.2615 18.2673C16.5248 18.2673 16.7882 18.1544 16.9763 17.9663C20.0235 14.9191 20.0235 10.0285 17.0139 6.98126Z" fill="#47A86E"/>
<path d="M18.1795 4.34845C17.7657 4.76227 17.7657 5.40181 18.1795 5.81564C21.8663 9.46478 21.8663 15.484 18.1795 19.1708C17.7657 19.5846 17.7657 20.2241 18.1795 20.638C18.3676 20.8261 18.6309 20.9389 18.8943 20.9389C19.1576 20.9389 19.421 20.8261 19.6091 20.638C24.1235 16.1235 24.1235 8.82524 19.6467 4.34845C19.2329 3.93463 18.5933 3.93463 18.1795 4.34845Z" fill="#47A86E"/>
<path d="M4.82478 5.77755C5.2386 5.36373 5.2386 4.72419 4.82478 4.31037C4.41096 3.89654 3.77141 3.89654 3.35759 4.31037C-1.1192 8.78716 -1.1192 16.0855 3.35759 20.5999C3.54569 20.788 3.80903 20.9008 4.07238 20.9008C4.33572 20.9008 4.59906 20.788 4.78716 20.5999C5.20098 20.186 5.20098 19.5465 4.78716 19.1327C1.13801 15.4835 1.13801 9.46432 4.82478 5.77755Z" fill="#47A86E"/>
</svg>
