<svg width="24" height="24" viewBox="0 0 24 24" fill="none" xmlns="http://www.w3.org/2000/svg">
<path d="M8.16988 6.81661C7.77405 6.42571 7.16231 6.42571 6.76649 6.81661C3.88773 9.6595 3.88773 14.3147 6.76649 17.1932C6.94641 17.3708 7.1983 17.4774 7.45019 17.4774C7.70208 17.4774 7.95397 17.3708 8.13389 17.1932C8.52972 16.8023 8.52972 16.1981 8.13389 15.8072C6.01081 13.7106 6.01081 10.2991 8.13389 8.20252C8.52972 7.81162 8.52972 7.20751 8.16988 6.81661Z" fill="#9899A0"/>
<path d="M5.615 5.67908C6.01083 5.28818 6.01083 4.68407 5.615 4.29317C5.21917 3.90228 4.60744 3.90228 4.21161 4.29317C-0.0705361 8.52197 -0.0705361 15.416 4.21161 19.6803C4.39153 19.858 4.64342 19.9646 4.89531 19.9646C5.1472 19.9646 5.39909 19.858 5.57902 19.6803C5.97484 19.2894 5.97484 18.6853 5.57902 18.2944C2.08853 14.8474 2.08853 9.16162 5.615 5.67908Z" fill="#9899A0"/>
<path fill-rule="evenodd" clip-rule="evenodd" d="M16 6C12.6863 6 10 8.68629 10 12C10 15.3137 12.6863 18 16 18C19.3137 18 22 15.3137 22 12C22 8.68629 19.3137 6 16 6ZM8 12C8 7.58172 11.5817 4 16 4C20.4183 4 24 7.58172 24 12C24 16.4183 20.4183 20 16 20C11.5817 20 8 16.4183 8 12Z" fill="#9899A0"/>
<path d="M15.1859 7.33398L15.369 12.468H16.7807L16.9637 7.33398H15.1859ZM14.833 15.4255C14.833 16.1575 15.369 16.6673 16.0748 16.6673C16.7807 16.6673 17.3167 16.1575 17.3167 15.4255C17.3167 14.6935 16.7807 14.1837 16.0748 14.1837C15.369 14.1837 14.833 14.6935 14.833 15.4255Z" fill="#9899A0"/>
</svg>
