<svg  viewBox="0 0 16 16" fill="none" xmlns="http://www.w3.org/2000/svg">
<path d="M7.3335 4.66536H8.66683V5.9987H7.3335V4.66536Z" fill="currentColor"/>
<path d="M7.3335 7.33203H8.66683V11.332H7.3335V7.33203Z" fill="currentColor"/>
<path fill-rule="evenodd" clip-rule="evenodd" d="M1.3335 7.9987C1.3335 4.3187 4.32015 1.33203 8.00016 1.33203C11.6802 1.33203 14.6668 4.3187 14.6668 7.9987C14.6668 11.6787 11.6802 14.6654 8.00016 14.6654C4.32015 14.6654 1.3335 11.6787 1.3335 7.9987ZM2.66683 7.9987C2.66683 10.9387 5.06014 13.332 8.00016 13.332C10.9402 13.332 13.3335 10.9387 13.3335 7.9987C13.3335 5.0587 10.9402 2.66536 8.00016 2.66536C5.06014 2.66536 2.66683 5.0587 2.66683 7.9987Z" fill="currentColor"/>
</svg>
