<svg  viewBox="0 0 48 48" fill="none" xmlns="http://www.w3.org/2000/svg">
<path fill-rule="evenodd" clip-rule="evenodd" d="M14 24C14 17.3733 19.3733 12 26 12C32.6267 12 38 17.3733 38 24C38 30.6267 32.6267 36 26 36C22.68 36 19.6933 34.6533 17.52 32.48L19.4133 30.5867C21.0933 32.28 23.4267 33.3333 26 33.3333C31.16 33.3333 35.3333 29.16 35.3333 24C35.3333 18.84 31.16 14.6667 26 14.6667C20.84 14.6667 16.6667 18.84 16.6667 24H20.6667L15.28 29.3733L15.1867 29.1867L10 24H14ZM24.6667 25.3333V18.6667H26.6667V24.2L31.36 26.9867L30.3333 28.6933L24.6667 25.3333Z" fill="white"/>
</svg>
