<svg  viewBox="0 0 181 40" fill="none" xmlns="http://www.w3.org/2000/svg">
<path d="M12.814 13.2725C24.9636 14.5636 31.7752 19.5556 39.4906 25.2134C48.9156 32.1217 59.595 39.9527 80.1378 39.9527H86.5448V0H73.7308V26.785C61.5812 25.4939 54.7695 20.5019 47.0542 14.8441C37.6292 7.93578 26.9498 0.104774 6.40698 0.104774H0V40H12.814V13.2725Z" fill="white"/>
<path d="M120.819 0.00675961H109.361C109.361 8.54077 102.434 15.4829 93.9199 15.4829V28.3262C106.488 28.3262 117.16 20.0591 120.819 8.66582V39.5302H133.633V0H120.819V0.00675961Z" fill="white"/>
<path d="M167.852 0V0.00675961H156.394C156.394 8.54077 149.468 15.4829 140.953 15.4829V28.3262C153.521 28.3262 164.194 20.0591 167.852 8.66582V39.5302H180.666V0H167.852Z" fill="white"/>
</svg>
