<svg width="45" height="45" viewBox="22.5 22.5 45 45" fill="none" xmlns="http://www.w3.org/2000/svg">
<g clip-path="url(#clip0_819_51177)">
<path d="M36.4539 47.025H30.5099C30.5099 51.4462 26.9169 55.0427 22.5 55.0427V61.6964C29.0195 61.6964 34.556 57.4135 36.4539 51.511V67.5009H43.1012V47.0215H36.4539V47.025Z" fill="#E5004D"/>
<path d="M60.8524 47.0215V47.025H54.9084C54.9084 51.4462 51.3154 55.0427 46.8984 55.0427V61.6964C53.418 61.6964 58.9544 57.4135 60.8524 51.511V67.5009H67.4996V47.0215H60.8524Z" fill="#E5004D"/>
<path d="M29.2488 29.3761C35.5514 30.0449 39.0849 32.6311 43.0873 35.5623C47.9765 39.1412 53.5164 43.1983 64.173 43.1983H67.4966V22.5H60.8494V36.3765C54.5468 35.7076 51.0132 33.1214 47.0109 30.1903C42.1217 26.6113 36.5817 22.5543 25.9252 22.5543H22.6016V43.2228H29.2488V29.3761Z" fill="#E5004D"/>
</g>
<defs>
<clipPath id="clip0_819_51177">
<rect width="45" height="45" fill="white" transform="translate(22.5 22.5)"/>
</clipPath>
</defs>
</svg>
