<svg width="40" height="40" viewBox="0 0 40 40" fill="none" xmlns="http://www.w3.org/2000/svg">
<circle cx="20.001" cy="20" r="20" fill="#E5004D"/>
<path d="M11.251 31.3474H13.3988V28.7034C13.3988 26.2249 15.4153 24.2083 17.8943 24.2083H22.04C24.5185 24.2083 26.5356 26.2249 26.5356 28.7034V31.3474H28.6833V28.7034C28.6833 26.4614 27.5575 24.3842 25.6717 23.1477C24.5873 22.4364 23.3317 22.0605 22.0404 22.0605H17.8948C15.8431 22.0605 13.9364 22.9946 12.6634 24.6229C11.7399 25.8044 11.2519 27.2154 11.2519 28.7034V31.3474H11.251Z" fill="white"/>
<path d="M19.9719 21.2162C23.5115 21.2162 26.392 18.3362 26.392 14.7961C26.392 11.2559 23.512 8.37598 19.9719 8.37598C16.4317 8.37598 13.5518 11.2559 13.5518 14.7961C13.5518 18.3358 16.4317 21.2162 19.9719 21.2162ZM19.9719 10.5233C22.3274 10.5233 24.2442 12.4401 24.2442 14.7961C24.2442 17.1516 22.3274 19.0684 19.9719 19.0684C17.6159 19.0684 15.6991 17.1516 15.6991 14.7961C15.6991 12.4401 17.6159 10.5233 19.9719 10.5233Z" fill="white"/>
</svg>
