<svg width="32" height="32" viewBox="0 0 32 32" fill="none" xmlns="http://www.w3.org/2000/svg">
<circle cx="16" cy="16" r="16" fill="#E5004D"/>
<path d="M9 25.0783H10.7182V22.9631C10.7182 20.9803 12.3315 19.367 14.3147 19.367H17.6312C19.6141 19.367 21.2277 20.9803 21.2277 22.9631V25.0783H22.9459V22.9631C22.9459 21.1694 22.0452 19.5077 20.5366 18.5185C19.6691 17.9495 18.6646 17.6488 17.6316 17.6488H14.315C12.6737 17.6488 11.1483 18.396 10.1299 19.6987C9.3911 20.6438 9.00073 21.7727 9.00073 22.9631V25.0783H9Z" fill="white"/>
<path d="M15.9764 16.9731C18.8082 16.9731 21.1125 14.6691 21.1125 11.837C21.1125 9.00489 18.8085 6.70093 15.9764 6.70093C13.1443 6.70093 10.8403 9.00489 10.8403 11.837C10.8403 14.6688 13.1443 16.9731 15.9764 16.9731ZM15.9764 8.41879C17.8608 8.41879 19.3943 9.95221 19.3943 11.837C19.3943 13.7214 17.8608 15.2549 15.9764 15.2549C14.0916 15.2549 12.5582 13.7214 12.5582 11.837C12.5582 9.95221 14.0916 8.41879 15.9764 8.41879Z" fill="white"/>
</svg>
