<svg width="59" height="59" viewBox="0 0 59 59" fill="none" xmlns="http://www.w3.org/2000/svg">
<g clip-path="url(#clip0_127_671)">
<circle cx="29.5" cy="29.5" r="29.5" fill="url(#paint0_linear_127_671)"/>
<path fill-rule="evenodd" clip-rule="evenodd" d="M33.7314 43.1605C33.7314 43.4582 33.4683 44.0021 32.483 44.5441C31.5575 45.0532 30.2586 45.3921 28.9093 45.3921C27.5603 45.3921 26.2687 45.0534 25.3506 44.5454C24.3752 44.0058 24.1123 43.4627 24.1123 43.1605C24.1123 42.8584 24.3752 42.3152 25.3506 41.7756C26.2687 41.2676 27.5603 40.9289 28.9093 40.9289C30.2586 40.9289 31.5575 41.2678 32.483 41.7769C33.4683 42.319 33.7314 42.8628 33.7314 43.1605ZM33.7369 45.0966C32.6067 45.9706 30.7804 46.5421 28.9093 46.5421C27.0219 46.5421 25.1897 45.9605 24.0692 45.0737L24.0624 45.6034C24.0638 46.2709 24.49 46.9599 25.3631 47.5106C26.2313 48.0582 27.4764 48.4182 28.9093 48.4182C30.3619 48.4182 31.614 48.0616 32.4773 47.5166C33.3258 46.9809 33.7369 46.3121 33.7369 45.6513V45.0966ZM34.8813 43.1768C34.8814 43.1714 34.8814 43.166 34.8814 43.1605C34.8814 41.2929 31.9546 39.7789 28.9093 39.7789C25.8827 39.7789 22.998 41.2744 22.9627 43.1262L22.9443 43.126L22.9124 45.5925L22.9124 45.5925V45.6C22.9124 46.7989 23.6746 47.8052 24.7496 48.4832C25.831 49.1653 27.297 49.5681 28.9093 49.5681C30.5353 49.5681 32.0102 49.1714 33.0912 48.489C34.145 47.8237 34.8869 46.8378 34.8869 45.6513V43.1768H34.8813Z" fill="black"/>
<path d="M31.8247 45.5998V48.4747" stroke="black" stroke-width="0.804985"/>
<path d="M28.9498 42.1494C29.7164 41.9577 31.3647 41.9194 31.8247 43.2993" stroke="black" stroke-width="0.804985"/>
<path d="M35.9231 36.7663H37.0976L39.941 33.7992V31.8624M39.941 30.9352V31.8624M34.1099 36.7663H32.7501M39.941 24.8981V25.8459M28.2583 36.7663H26.8263M38.9314 19.9325H39.941V21.9311L25.3943 36.7663H26.8263M22.2624 36.7663H21.088M33.0179 19.9325H34.2954M18.1827 34.85V34.0053V33.7374M27.2487 19.9325H28.011M18.1827 28.813V28.0094M21.0055 19.9325H22.5097M18.1827 22.9407V21.9311M18.1827 21.9311V24.9702V28.0094M18.1827 21.9311L32.7501 36.7663M21.088 36.7663H19.3366L35.9231 19.9325H34.4705H34.2954M21.088 36.7663L18.1827 33.7374M18.1827 33.7374V31.7388L30.2157 19.9325H28.011M18.1827 33.7374V30.8734V28.0094M23.8902 36.7663H26.8263M26.8263 36.7663L18.1827 28.0094M18.1827 28.0094V25.6811L24.0138 19.9325H22.5097M29.8448 36.7663H32.7501M32.7501 36.7663H31.1223L39.941 27.8239V25.8459M18.1827 19.9325H22.5097M22.5097 19.9325L38.849 36.7663H39.941V34.5822M25.0234 19.9325H28.011M28.011 19.9325L39.941 31.8624M31.0193 19.9325H34.2954M34.2954 19.9325L39.941 25.8459" stroke="black" stroke-width="0.574989"/>
<path d="M16.0192 39.6927H14C14.0069 33.4427 14.033 20.5718 14.0824 19.0882C14.1319 17.6047 16.5962 16.021 17.8324 16.0182C23.9382 16.0045 36.9038 15.9852 39.9203 16.0182C42.9368 16.0512 43.897 18.4907 44 19.7064V39.6308H41.9396V20.0361C41.9396 18.9317 40.5934 18.4358 39.9203 18.3259C33.0179 18.3122 18.9368 18.2929 17.8324 18.3259C16.728 18.3589 16.1635 19.6309 16.0192 20.2627V39.6927Z" stroke="black" stroke-width="1.14998"/>
<path d="M18.1209 19.8915V36.7871H39.941V19.8915H18.1209Z" stroke="black" stroke-width="0.804985"/>
<path d="M16.9053 18.7792L18.1622 19.9948" stroke="black" stroke-width="0.804985"/>
<path d="M39.8998 19.9329L40.9919 18.7996" stroke="black" stroke-width="0.804985"/>
<path d="M18.1621 36.7667L16.1429 38.6211" stroke="black" stroke-width="0.804985"/>
<path d="M39.8789 36.7053L41.8363 38.6833" stroke="black" stroke-width="0.804985"/>
</g>
<defs>
<linearGradient id="paint0_linear_127_671" x1="29.5" y1="0" x2="29.5" y2="59" gradientUnits="userSpaceOnUse">
<stop stop-color="#C258FF"/>
<stop offset="1" stop-color="#654CF4"/>
</linearGradient>
<clipPath id="clip0_127_671">
<rect width="59" height="59" fill="white"/>
</clipPath>
</defs>
</svg>
