<svg width="31" height="28" viewBox="0 0 31 28" fill="none" xmlns="http://www.w3.org/2000/svg">
<g clip-path="url(#clip0_93_10288)">
<rect x="0.152008" width="30" height="28" rx="3" fill="white"/>
<path d="M24.152 6.41669L8.15201 6.41669" stroke="#E5004D" stroke-width="1.5" stroke-linecap="round"/>
<path d="M24.152 13.5L8.15201 13.5" stroke="#E5004D" stroke-width="1.5" stroke-linecap="round"/>
<path d="M24.152 20.5833L8.15201 20.5833" stroke="#E5004D" stroke-width="1.5" stroke-linecap="round"/>
<path d="M6.28594 6.5C6.28594 7.05228 5.83823 7.5 5.28594 7.5C4.73366 7.5 4.28594 7.05228 4.28594 6.5C4.28594 5.94772 4.73366 5.5 5.28594 5.5C5.83823 5.5 6.28594 5.94772 6.28594 6.5Z" fill="#E5004D"/>
<path d="M6.28587 13.5493C6.28587 14.1016 5.83815 14.5493 5.28587 14.5493C4.73358 14.5493 4.28587 14.1016 4.28587 13.5493C4.28587 12.997 4.73358 12.5493 5.28587 12.5493C5.83815 12.5493 6.28587 12.997 6.28587 13.5493Z" fill="#E5004D"/>
<path d="M6.28579 20.6599C6.28579 21.2122 5.83807 21.6599 5.28579 21.6599C4.73351 21.6599 4.28579 21.2122 4.28579 20.6599C4.28579 20.1076 4.73351 19.6599 5.28579 19.6599C5.83807 19.6599 6.28579 20.1076 6.28579 20.6599Z" fill="#E5004D"/>
</g>
<defs>
<clipPath id="clip0_93_10288">
<rect width="30" height="28" fill="white" transform="translate(0.152008)"/>
</clipPath>
</defs>
</svg>
