<svg width="24" height="24" viewBox="0 0 24 24" fill="none" xmlns="http://www.w3.org/2000/svg">
<path d="M15.7036 18.8101H20.5004C20.4794 16.4958 20.269 14.1606 18.0389 14.0133C17.0501 14.7707 16.1665 15.2335 15.3039 15.4018C15.1356 14.8759 14.8621 14.392 14.5044 13.9922C15.388 14.0343 16.2506 13.5294 17.534 12.5195C22.3518 12.5195 21.9942 16.7062 21.9942 20.2828H15.7036C15.7036 19.7989 15.7036 19.7148 15.7036 19.6306C15.7036 19.3571 15.7036 19.0836 15.7036 18.8101Z" fill="#979797"/>
<path d="M14.5885 4C17.029 4 19.0276 5.99868 19.0276 8.43917C19.0276 10.8797 17.029 12.8783 14.5885 12.8783C13.7469 12.8783 12.9475 12.6469 12.2953 12.2261C12.5688 11.8264 12.7791 11.3636 12.9264 10.8586C13.4103 11.1952 13.9783 11.3846 14.6095 11.3846C16.2505 11.3846 17.576 10.0592 17.576 8.41813C17.576 6.77711 16.2505 5.45167 14.6095 5.45167C13.5365 5.45167 12.5898 6.01972 12.0638 6.8823C11.9586 6.75607 11.8745 6.65088 11.7482 6.54569C11.4958 6.29322 11.2223 6.08283 10.9277 5.89348C11.7272 4.75739 13.0737 4 14.5885 4Z" fill="#979797"/>
<path d="M3.33268 18.9596H13.8731C13.852 16.8978 13.6627 14.815 11.664 14.6887C9.39183 16.4349 7.79289 16.4349 5.5207 14.6887C3.52203 14.815 3.35372 16.8978 3.33268 18.9596ZM2.00724 20.285C2.00724 17.1082 1.64958 13.3633 5.96252 13.3633C8.19262 15.1305 8.99209 15.1305 11.2222 13.3633C15.5351 13.3633 15.1985 17.0871 15.1985 20.285C10.8014 20.285 6.40433 20.285 2.00724 20.285Z" fill="#979797"/>
<path d="M8.59249 5.76562C10.7805 5.76562 12.5478 7.53288 12.5478 9.7209C12.5478 11.9089 10.7805 13.6762 8.59249 13.6762C6.40446 13.6762 4.63721 11.9089 4.63721 9.7209C4.63721 7.55392 6.40446 5.76562 8.59249 5.76562ZM8.59249 7.09106C7.14081 7.09106 5.96265 8.26923 5.96265 9.7209C5.96265 11.1726 7.14081 12.3507 8.59249 12.3507C10.0442 12.3507 11.2223 11.1726 11.2223 9.7209C11.2223 8.26923 10.0442 7.09106 8.59249 7.09106Z" fill="#979797"/>
</svg>
