<svg viewBox="0 0 18 19" fill="none" xmlns="http://www.w3.org/2000/svg">
<path fill-rule="evenodd" clip-rule="evenodd" d="M9 2C4.86 2 1.5 5.36 1.5 9.5C1.5 13.64 4.86 17 9 17C13.14 17 16.5 13.64 16.5 9.5C16.5 5.36 13.14 2 9 2ZM9.3825 7.9925C9.3825 6.755 8.37 5.7425 7.1325 5.7425C5.895 5.7425 4.8825 6.755 4.8825 7.9925C4.8825 9.23 5.895 10.2425 7.1325 10.2425C8.37 10.2425 9.3825 9.23 9.3825 7.9925ZM7.1325 8.7425C6.72 8.7425 6.3825 8.405 6.3825 7.9925C6.3825 7.58 6.72 7.2425 7.1325 7.2425C7.545 7.2425 7.8825 7.58 7.8825 7.9925C7.8825 8.405 7.545 8.7425 7.1325 8.7425ZM13.5075 8.7425C13.5075 9.575 12.84 10.2425 12.0075 10.2425C11.175 10.2425 10.5075 9.575 10.5075 8.7425C10.5 7.91 11.175 7.2425 12.0075 7.2425C12.84 7.2425 13.5075 7.91 13.5075 8.7425ZM7.1325 12.5C6.09 12.5 4.8975 12.9275 4.3875 13.3325C5.415 14.57 6.93 15.38 8.6325 15.4775V13.3925C8.6325 11.975 10.8675 11.3675 12.0075 11.3675C12.6675 11.3675 13.6875 11.5775 14.4375 12.02C14.7975 11.2475 15 10.3925 15 9.4925C15 6.185 12.3075 3.4925 9 3.4925C5.6925 3.4925 3 6.185 3 9.4925C3 10.415 3.21 11.285 3.585 12.065C4.59 11.33 6.1575 10.9925 7.1325 10.9925C7.4625 10.9925 7.86 11.0375 8.28 11.1125C7.8075 11.54 7.485 12.0275 7.305 12.5075C7.274 12.5075 7.243 12.5055 7.21303 12.5036C7.185 12.5018 7.15787 12.5 7.1325 12.5Z" fill="#9899A0"/>
</svg>
