<svg viewBox="0 0 18 18" fill="none" xmlns="http://www.w3.org/2000/svg">
<path d="M9.376 7.52801C9.376 7.74134 9.42933 7.91201 9.536 8.04001C9.664 8.14668 9.83467 8.20001 10.048 8.20001H16.48C16.6933 8.20001 16.8533 8.26401 16.96 8.39201C17.088 8.49868 17.152 8.65868 17.152 8.87201V9.12801C17.152 9.34135 17.088 9.51201 16.96 9.64001C16.8533 9.74668 16.6933 9.80001 16.48 9.80001H10.048C9.83467 9.80001 9.664 9.86401 9.536 9.99201C9.42933 10.0987 9.376 10.2587 9.376 10.472V16.904C9.376 17.1173 9.312 17.288 9.184 17.416C9.07733 17.5227 8.91733 17.576 8.704 17.576H8.448C8.23467 17.576 8.064 17.5227 7.936 17.416C7.82933 17.288 7.776 17.1173 7.776 16.904V10.472C7.776 10.2587 7.712 10.0987 7.584 9.99201C7.47733 9.86401 7.31733 9.80001 7.104 9.80001H0.671999C0.458666 9.80001 0.288 9.74668 0.16 9.64001C0.0533331 9.51201 0 9.34135 0 9.12801V8.87201C0 8.65868 0.0533331 8.49868 0.16 8.39201C0.288 8.26401 0.458666 8.20001 0.671999 8.20001H7.104C7.31733 8.20001 7.47733 8.14668 7.584 8.04001C7.712 7.91201 7.776 7.74134 7.776 7.52801V1.09601C7.776 0.882677 7.82933 0.722677 7.936 0.616011C8.064 0.488011 8.23467 0.424011 8.448 0.424011H8.704C8.91733 0.424011 9.07733 0.488011 9.184 0.616011C9.312 0.722677 9.376 0.882677 9.376 1.09601V7.52801Z" fill="currentColor"/>
</svg>
