<svg  viewBox="0 0 21 21"  xmlns="http://www.w3.org/2000/svg">
<path fill-rule="evenodd" clip-rule="evenodd" d="M10.8994 0.12207C5.37941 0.12207 0.899414 4.60207 0.899414 10.1221C0.899414 15.6421 5.37941 20.1221 10.8994 20.1221C16.4194 20.1221 20.8994 15.6421 20.8994 10.1221C20.8994 4.60207 16.4194 0.12207 10.8994 0.12207ZM5.96941 16.4021C6.39941 15.5021 9.01941 14.6221 10.8994 14.6221C12.7794 14.6221 15.4094 15.5021 15.8294 16.4021C14.4694 17.4821 12.7594 18.1221 10.8994 18.1221C9.03941 18.1221 7.32941 17.4821 5.96941 16.4021ZM10.8994 12.6221C12.3594 12.6221 15.8294 13.2121 17.2594 14.9521C18.2794 13.6121 18.8994 11.9421 18.8994 10.1221C18.8994 5.71207 15.3094 2.12207 10.8994 2.12207C6.48941 2.12207 2.89941 5.71207 2.89941 10.1221C2.89941 11.9421 3.51941 13.6121 4.53941 14.9521C5.96941 13.2121 9.43941 12.6221 10.8994 12.6221ZM10.8994 4.12207C8.95941 4.12207 7.39941 5.68207 7.39941 7.62207C7.39941 9.56207 8.95941 11.1221 10.8994 11.1221C12.8394 11.1221 14.3994 9.56207 14.3994 7.62207C14.3994 5.68207 12.8394 4.12207 10.8994 4.12207ZM9.39941 7.62207C9.39941 8.45207 10.0694 9.12207 10.8994 9.12207C11.7294 9.12207 12.3994 8.45207 12.3994 7.62207C12.3994 6.79207 11.7294 6.12207 10.8994 6.12207C10.0694 6.12207 9.39941 6.79207 9.39941 7.62207Z" />
</svg>
