<svg  viewBox="0 0 48 49" fill="none" xmlns="http://www.w3.org/2000/svg">
<rect y="0.5" width="48" height="48" rx="24" fill="#E5004D"/>
<path fill-rule="evenodd" clip-rule="evenodd" d="M35.2639 30.44L32.0239 28.82C33.3139 27.82 34.1439 26.26 34.1439 24.5C34.1439 21.47 31.6739 19 28.6439 19C25.6139 19 23.1439 21.47 23.1439 24.5C23.1439 26.63 24.3639 28.48 26.1439 29.39V32.65L24.3039 32.26L24.2039 32.24C24.1039 32.22 24.0039 32.21 23.8839 32.21C23.3539 32.21 22.8539 32.42 22.4739 32.8L21.0739 34.22L26.1639 39.31C26.5939 39.75 27.1939 40 27.8139 40H34.1139C35.0939 40 35.9239 39.3 36.0839 38.33L36.8839 33.62C37.1039 32.32 36.4539 31.04 35.2639 30.44ZM34.9139 33.29L34.1139 38H27.8139C27.7239 38 27.6439 37.96 27.5739 37.9L23.8939 34.22L28.1439 35.11V24.5C28.1439 24.22 28.3639 24 28.6439 24C28.9239 24 29.1439 24.22 29.1439 24.5V30.5H30.9039L34.3639 32.23C34.7639 32.43 34.9839 32.86 34.9139 33.29ZM28.6439 21C26.7139 21 25.1439 22.57 25.1439 24.5C25.1439 25.45 25.5239 26.31 26.1439 26.94V24.5C26.1439 23.12 27.2639 22 28.6439 22C30.0239 22 31.1439 23.12 31.1439 24.5V26.94C31.7639 26.31 32.1439 25.45 32.1439 24.5C32.1439 22.57 30.5739 21 28.6439 21Z" fill="white"/>
<path d="M30.6667 12.5V15.1667" stroke="white" stroke-width="2.66667" stroke-linecap="round" stroke-linejoin="round"/>
<path d="M17.3333 12.5V15.1667" stroke="white" stroke-width="2.66667" stroke-linecap="round" stroke-linejoin="round"/>
<path d="M18.7075 36.5C17.9007 36.5 16.6904 36.5 15.0767 36.5C14.0068 36.5 13.6189 36.3957 13.2278 36.2C12.8367 36.0043 12.5297 35.7171 12.3206 35.3512C12.1114 34.9852 12 34.6222 12 33.6212V18.0454C12 17.0444 12.1114 16.6814 12.3206 16.3154C12.5297 15.9495 12.8367 15.6623 13.2278 15.4666C13.6189 15.2709 14.0068 15.1666 15.0767 15.1666H32.9233C33.9932 15.1666 34.3811 15.2709 34.7722 15.4666C35.1633 15.6623 35.4703 15.9495 35.6794 16.3154C35.8886 16.6814 36 18.1623 36 19.1633" stroke="white" stroke-width="2.66667" stroke-linecap="round" stroke-linejoin="round"/>
</svg>
