<svg width="24" height="24" viewBox="0 0 24 24" xmlns="http://www.w3.org/2000/svg">
    <path d="M5.01043 9.30002L5.11174 9.02683H5.37853C5.42181 9.02105 5.48453 9.01541 5.56533 9.01541C5.76539 9.01541 5.98341 9.04853 6.21322 9.11426L6.40457 9.16895L6.80604 10.0785C6.88899 10.1227 7.08851 10.2015 7.46036 10.2015H7.50391C7.60723 10.1695 8.02236 9.99878 9.05952 9.12761L9.21148 9L10.7285 9.24892L10.7984 9.29052C10.8321 9.31042 14.1849 11.281 16.6665 11.3518L16.7369 11.3597C17.7804 11.5599 18.0564 12.3415 17.9909 12.8404C17.9799 13.4012 17.6619 13.8339 17.0927 14.0612C16.9772 14.1071 16.8616 14.14 16.7509 14.1652V14.4567C16.7509 14.6807 16.5613 14.8625 16.3272 14.8625C16.0931 14.8625 15.9035 14.6807 15.9035 14.4567V14.2345H15.1832V14.4567C15.1832 14.6807 14.9933 14.8625 14.7595 14.8625C14.5257 14.8625 14.3358 14.6807 14.3358 14.4567V14.2345L13.6153 14.2343V14.4567C13.6153 14.6807 13.4255 14.8625 13.1916 14.8625C12.9576 14.8625 12.7678 14.6807 12.7678 14.4567V14.2343H12.0475V14.4567C12.0475 14.6807 11.8579 14.8625 11.6238 14.8625C11.3898 14.8625 11.2 14.6807 11.2 14.4567V14.2343H8.51039V14.4567C8.51039 14.6807 8.32065 14.8625 8.08668 14.8625C7.85272 14.8625 7.66284 14.6807 7.66284 14.4567V14.2342H6.54045V14.4567C6.54045 14.6807 6.35071 14.8625 6.11674 14.8625C5.88291 14.8625 5.69317 14.6807 5.69317 14.4567V14.2107C5.10611 14.1085 4.84401 13.6891 4.8022 13.3713C4.25883 11.4204 4.97921 9.38616 5.01043 9.30002ZM12.1702 13.4221L13.1665 11.3344C12.938 11.2449 12.7171 11.1534 12.5059 11.0616L11.3889 13.4221H12.1702ZM11.7407 10.7118C11.5029 10.5974 11.2881 10.4891 11.1024 10.3924L9.68517 13.422H10.4582L11.7407 10.7118ZM17.1439 12.81L17.1493 12.7463C17.1619 12.6701 17.1937 12.289 16.6025 12.1622C15.7504 12.1322 14.8285 11.912 13.9605 11.6225L13.1018 13.4222H16.1315L16.1453 13.4224C16.2027 13.4224 16.5031 13.417 16.7671 13.3117C17.0991 13.1791 17.1439 12.9837 17.1439 12.81ZM5.62938 13.1903L5.64131 13.2313L5.64399 13.2742C5.64439 13.2802 5.65645 13.4218 5.97309 13.4218H8.75682L10.3524 10.0108L9.46514 9.86539C8.0631 11.0189 7.641 11.0189 7.49909 11.0189C7.46934 11.0189 7.44053 11.0169 7.41306 11.0128C6.55439 11.0012 6.20532 10.673 6.14314 10.6061L6.09624 10.5558L5.78415 9.84858C5.76405 9.84498 5.74476 9.8419 5.72653 9.83933C5.56225 10.4258 5.24748 11.8573 5.62938 13.1903Z"/>
</svg>
