<svg viewBox="0 0 26 29"  xmlns="http://www.w3.org/2000/svg">
<path d="M1.47386 17.1953L1.47386 5.60083C1.47386 5.59977 1.47386 5.59998 1.47386 5.59892C1.47381 5.56477 1.47115 2.77466 1.99999 1.84572C2.93573 0.202019 3.70496 4.11804 3.90771 5.28393C3.93947 5.46658 4.09698 5.59929 4.28237 5.59929L6.79098 5.59927C7.00761 5.59927 7.18106 5.41723 7.18005 5.20061C7.17641 4.42068 7.25796 2.69516 8.00003 1.84504C8.88592 0.830159 10.5 0.845812 11.5 1.34563C12.44 1.81543 12.2935 5.07226 12.2725 5.46163C12.2711 5.48739 12.2723 5.51252 12.2754 5.53814C12.278 5.55927 12.2801 5.57972 12.2817 5.59945V8.76111M1.47386 17.1953V21.3608C1.47386 22.1899 2.14592 22.8619 2.97495 22.8619H3.51909H3.96003M1.47386 17.1953C3.44404 17.0953 7.36937 18.0885 7.30932 22.8619M7.30932 22.8619H5.28286H4.40097H3.96003M7.30932 22.8619H7.85347H8.20804M12.2817 8.76111H9.35455M12.2817 8.76111V11.0972M12.2817 11.0972L9.35455 11.1695M12.2817 11.0972L13 13M13 13L10 13.5M13 13C13.1349 13.4611 13.5052 13.8236 14 14.1086M3.96003 22.8619C2.47335 24.2413 -1.46031e-05 27.1001 1.99999 27.5001C3.99999 27.9001 16.5 27.6668 22.5 27.5001C24.0299 27.408 26.0306 26.3514 21.7948 22.8619M21.7948 22.8619H20.5564H18.1547H17.6011M21.7948 22.8619H23.0332H23.2361C23.6343 22.8619 24.0157 22.7015 24.2942 22.4168V22.4168C24.5569 22.1482 24.7145 21.7897 24.686 21.4151C24.5243 19.2921 23.2485 15.7923 18.999 15.1501C18.7846 15.1476 17.2092 15.1039 15.7193 14.7449M8.20804 22.8619H17.0476H17.6011M8.20804 22.8619C7.01157 23.6851 5.15676 25.3484 7.30932 25.4158C9.46189 25.4833 15.3334 25.5001 18 25.5001C19.2341 25.5747 20.882 25.1514 17.6011 22.8619M14 14.1086L11.5 15.5M14 14.1086C14.4875 14.3893 15.0959 14.5947 15.7193 14.7449M15.7193 14.7449L14.5 17" stroke="grey" stroke-width="1.33333" stroke-linecap="round"/>
</svg>
