<svg width="80" height="80" viewBox="0 0 80 80" fill="none" xmlns="http://www.w3.org/2000/svg">
<path fill-rule="evenodd" clip-rule="evenodd" d="M40 6.6665C21.6 6.6665 6.66667 21.5998 6.66667 39.9998C6.66667 58.3998 21.6 73.3332 40 73.3332C58.4 73.3332 73.3333 58.3998 73.3333 39.9998C73.3333 21.5998 58.4 6.6665 40 6.6665ZM40 66.6665C25.3 66.6665 13.3333 54.6998 13.3333 39.9998C13.3333 25.2998 25.3 13.3332 40 13.3332C54.7 13.3332 66.6667 25.2998 66.6667 39.9998C66.6667 54.6998 54.7 66.6665 40 66.6665ZM33.3333 47.2332L55.3 25.2665L60 29.9998L33.3333 56.6665L20 43.3332L24.7 38.6332L33.3333 47.2332Z" fill="url(#paint0_linear_149_8434)"/>
<defs>
<linearGradient id="paint0_linear_149_8434" x1="40" y1="6.6665" x2="40" y2="73.3332" gradientUnits="userSpaceOnUse">
<stop stop-color="#FFA658"/>
<stop offset="1" stop-color="#E5004D"/>
</linearGradient>
</defs>
</svg>
