<svg viewBox="0 0 24 24" fill="none" xmlns="http://www.w3.org/2000/svg">
<path fill-rule="evenodd" clip-rule="evenodd" d="M8.14285 6.76327C9.21731 5.94133 10.5519 5.45455 12.0002 5.45455C15.5506 5.45455 18.4288 8.38505 18.4288 12H16.2856L19.1428 16.3636L21.9999 12H19.8574C19.8574 7.58172 16.3396 4 12.0002 4C10.2319 4 8.59812 4.59566 7.28475 5.60037L8.14285 6.76327Z" fill="#30C952"/>
<path fill-rule="evenodd" clip-rule="evenodd" d="M7.71429 11.9999L4.85714 7.63627L2 11.9999H7.71429ZM12 18.5455C8.44962 18.5455 5.57145 15.615 5.57145 12H4.14287C4.14287 16.4183 7.66064 20 12 20C13.768 20 15.4015 19.4046 16.7147 18.4002L15.8567 17.2372C14.7824 18.0589 13.448 18.5455 12 18.5455Z" fill="#9899A0"/>
</svg>
