<svg width="59" height="59" viewBox="0 0 59 59" fill="none" xmlns="http://www.w3.org/2000/svg">
<g clip-path="url(#clip0_127_668)">
<circle cx="29.5" cy="29.5" r="29.5" fill="url(#paint0_linear_127_668)"/>
<path d="M20.4739 33.1952L20.4739 21.6007C20.4739 21.5996 20.4739 21.5999 20.4739 21.5988C20.4738 21.5646 20.4711 18.7745 21 17.8456C21.9357 16.2019 22.705 20.1179 22.9077 21.2838C22.9395 21.4665 23.097 21.5992 23.2824 21.5992L25.791 21.5991C26.0076 21.5991 26.1811 21.4171 26.18 21.2005C26.1764 20.4206 26.258 18.695 27 17.8449C27.8859 16.83 29.5 16.8457 30.5 17.3455C31.44 17.8153 31.2935 21.0721 31.2725 21.4615C31.2711 21.4873 31.2723 21.5124 31.2754 21.538C31.278 21.5591 31.2801 21.5796 31.2817 21.5993V24.761M20.4739 33.1952V37.3607C20.4739 38.1898 21.1459 38.8618 21.9749 38.8618H22.5191H22.96M20.4739 33.1952C22.444 33.0951 26.3694 34.0884 26.3093 38.8618M26.3093 38.8618H24.2829H23.401H22.96M26.3093 38.8618H26.8535H27.208M31.2817 24.761H28.3546M31.2817 24.761V27.097M31.2817 27.097L28.3546 27.1694M31.2817 27.097L32 28.9999M32 28.9999L29 29.4999M32 28.9999C32.1349 29.461 32.5052 29.8235 33 30.1084M22.96 38.8618C21.4733 40.2412 19 43.1 21 43.5C23 43.9 35.5 43.6667 41.5 43.5C43.0299 43.4079 45.0306 42.3513 40.7948 38.8618M40.7948 38.8618H39.5564H37.1547H36.6011M40.7948 38.8618H42.0332H42.2361C42.6343 38.8618 43.0157 38.7013 43.2942 38.4167V38.4167C43.5569 38.1481 43.7145 37.7896 43.686 37.415C43.5243 35.2919 42.2485 31.7922 37.999 31.15C37.7846 31.1474 36.2092 31.1038 34.7193 30.7448M27.208 38.8618H36.0476H36.6011M27.208 38.8618C26.0116 39.685 24.1568 41.3482 26.3093 41.4157C28.4619 41.4831 34.3334 41.5 37 41.5C38.2341 41.5745 39.882 41.1513 36.6011 38.8618M33 30.1084L30.5 31.4999M33 30.1084C33.4875 30.3891 34.0959 30.5945 34.7193 30.7448M34.7193 30.7448L33.5 32.9999" stroke="black" stroke-width="1.33333" stroke-linecap="round"/>
</g>
<defs>
<linearGradient id="paint0_linear_127_668" x1="29.5" y1="1.49012e-08" x2="30" y2="82" gradientUnits="userSpaceOnUse">
<stop stop-color="#58B1FF"/>
<stop offset="1" stop-color="#00E591"/>
</linearGradient>
<clipPath id="clip0_127_668">
<rect width="59" height="59" fill="white"/>
</clipPath>
</defs>
</svg>
