<svg width="18" height="19" viewBox="0 0 18 19" fill="none" xmlns="http://www.w3.org/2000/svg">
<path d="M3.36755 7.51867L3.45827 7.27403H3.69719C3.73595 7.26885 3.79212 7.2638 3.86448 7.2638C4.04364 7.2638 4.23888 7.29346 4.44468 7.35232L4.61604 7.40129L4.97556 8.21582C5.04984 8.25537 5.22852 8.32596 5.56152 8.32596H5.60052C5.69304 8.29733 6.0648 8.14443 6.9936 7.36428L7.12968 7.25L8.48821 7.47292L8.55085 7.51017C8.58097 7.52799 11.5835 9.2927 13.8058 9.35605L13.8689 9.36318C14.8033 9.54241 15.0505 10.2424 14.9919 10.6892C14.982 11.1914 14.6973 11.5789 14.1875 11.7824C14.0841 11.8235 13.9805 11.853 13.8814 11.8755V12.1366C13.8814 12.3372 13.7116 12.5 13.5019 12.5C13.2923 12.5 13.1225 12.3372 13.1225 12.1366V11.9376H12.4775V12.1366C12.4775 12.3372 12.3075 12.5 12.0981 12.5C11.8887 12.5 11.7186 12.3372 11.7186 12.1366V11.9376L11.0734 11.9375V12.1366C11.0734 12.3372 10.9035 12.5 10.6939 12.5C10.4844 12.5 10.3145 12.3372 10.3145 12.1366V11.9375H9.66937V12.1366C9.66937 12.3372 9.49957 12.5 9.28993 12.5C9.08041 12.5 8.91049 12.3372 8.91049 12.1366V11.9375H6.50184V12.1366C6.50184 12.3372 6.33192 12.5 6.1224 12.5C5.91288 12.5 5.74284 12.3372 5.74284 12.1366V11.9374H4.73772V12.1366C4.73772 12.3372 4.5678 12.5 4.35828 12.5C4.14888 12.5 3.97896 12.3372 3.97896 12.1366V11.9163C3.45323 11.8248 3.21851 11.4492 3.18107 11.1646C2.69447 9.41755 3.33959 7.59582 3.36755 7.51867ZM9.77929 11.2101L10.6715 9.34053C10.4669 9.2604 10.269 9.17843 10.0799 9.09623L9.07957 11.2101H9.77929ZM9.39469 8.78295C9.18169 8.68051 8.98933 8.58348 8.82301 8.49691L7.55389 11.21H8.24617L9.39469 8.78295ZM14.2333 10.6619L14.2381 10.6049C14.2494 10.5366 14.278 10.1954 13.7485 10.0818C12.9855 10.0549 12.1599 9.85776 11.3825 9.59851L10.6135 11.2102H13.3267L13.3391 11.2103C13.3905 11.2103 13.6595 11.2055 13.8959 11.1112C14.1933 10.9925 14.2333 10.8175 14.2333 10.6619ZM3.92183 11.0025L3.93252 11.0393L3.93492 11.0777C3.93528 11.0831 3.94608 11.2099 4.22964 11.2099H6.72252L8.15137 8.15524L7.35684 8.02498C6.10128 9.05794 5.72328 9.05794 5.5962 9.05794C5.56956 9.05794 5.54376 9.05622 5.51916 9.05254C4.7502 9.04208 4.4376 8.74823 4.38192 8.68833L4.33992 8.64326L4.06044 8.00992C4.04243 8.0067 4.02516 8.00394 4.00884 8.00164C3.86172 8.5268 3.57983 9.80878 3.92183 11.0025Z" fill="#686868"/>
</svg>
